<svg xmlns="http://www.w3.org/2000/svg" width="224" height="255" viewBox="0 0 224 255" fill="none"><g clip-path="url(#clip0_27_26917)"><path d="M92.1345 150.481C87.1175 149.29 82.2295 147.61 77.5405 145.465C72.1613 143.022 67.1171 139.9 62.531 136.176C50.5041 126.353 43.1069 112.968 43.1069 98.2182C43.1102 91.7095 44.5439 85.2811 47.3063 79.3877C47.9296 78.0374 48.627 76.7093 49.3838 75.4109C56.3877 63.3692 68.8078 53.6794 84.1735 48.3003C84.251 48.72 84.3652 49.1321 84.5148 49.5319C85.5238 52.2474 88.1058 54.0355 90.6729 55.3784C96.6084 58.4575 106.202 60.0007 112.835 60.0824C119.453 60.0007 129.098 58.4575 135.034 55.3784C137.601 54.0355 140.227 52.2474 141.199 49.5319C141.29 49.2891 141.366 49.0414 141.429 48.79C156.12 54.2433 167.983 63.6808 174.817 75.3441C175.578 76.6499 176.276 77.9805 176.909 79.3358C179.688 85.2408 181.134 91.6846 181.145 98.2108C181.145 113.005 173.726 126.405 161.617 136.258C157.544 139.561 153.106 142.387 148.389 144.679C147.335 145.198 146.262 145.693 145.169 146.163C144.308 146.534 143.44 146.905 142.557 147.231C143.824 146.413 144.915 145.349 145.765 144.103C146.615 142.857 147.207 141.453 147.506 139.975C147.651 139.242 147.723 138.496 147.721 137.749C147.722 134.835 146.591 132.034 144.565 129.94C142.54 127.845 139.779 126.62 136.866 126.523H136.518C134.726 126.518 132.959 126.946 131.368 127.77C129.878 128.54 128.578 129.633 127.562 130.968C127.488 131.316 127.406 131.71 127.317 132.029C126.917 133.676 126.422 135.298 125.834 136.888C125.678 137.304 125.515 137.712 125.351 138.112C125.356 138.127 125.356 138.143 125.351 138.157C124.39 140.508 123.234 142.774 121.894 144.931C119.93 148.054 117.329 150.727 114.259 152.773C108.687 156.554 101.893 158.091 95.2358 157.077L94.902 157.025C93.2697 156.758 91.8452 156.283 91.1923 155.073C90.7734 154.204 90.7095 153.206 91.0142 152.291C91.2862 151.63 91.6647 151.019 92.1345 150.481Z" fill="#DBD1E8"></path><path d="M141.711 247.104C142.613 247.095 143.497 247.349 144.257 247.835C145.016 248.322 145.616 249.019 145.985 249.842C144.918 250.874 143.557 251.548 142.09 251.771C140.487 252.12 138.87 252.416 137.245 252.639C137.14 252.275 137.088 251.898 137.089 251.519C137.118 250.321 137.621 249.183 138.488 248.356C139.354 247.528 140.513 247.078 141.711 247.104Z" fill="#7C54A2"></path><path d="M137.067 252.528V252.661C136.154 252.802 135.241 252.914 134.321 253.01C130.95 253.354 127.558 253.453 124.172 253.307C124.135 253.049 124.118 252.788 124.12 252.528V252.439C124.12 252.372 124.12 252.305 124.12 252.238V252.157C124.127 252.06 124.127 251.964 124.12 251.867C124.363 250.275 125.19 248.83 126.44 247.814C127.689 246.797 129.272 246.281 130.88 246.366C132.488 246.452 134.008 247.132 135.143 248.274C136.278 249.417 136.948 250.941 137.022 252.55L137.067 252.528Z" fill="#7C54A2"></path><path d="M124.164 251.845C124.172 251.941 124.172 252.038 124.164 252.135C124.172 252.228 124.172 252.323 124.164 252.416C124.13 252.706 124.06 252.99 123.957 253.262C122.206 253.183 120.457 253.035 118.711 252.817C117.572 252.725 116.453 252.46 115.394 252.031L114.979 251.823C115.046 250.644 115.561 249.536 116.419 248.725C117.277 247.914 118.413 247.462 119.594 247.462C120.774 247.462 121.91 247.914 122.768 248.725C123.627 249.536 124.142 250.644 124.209 251.823L124.164 251.845Z" fill="#7C54A2"></path><path d="M109.808 251.86C109.674 251.934 109.533 252.001 109.392 252.068C108.34 252.495 107.229 252.76 106.098 252.854C104.357 253.067 102.608 253.215 100.852 253.3C100.748 253.027 100.679 252.743 100.645 252.454C100.645 252.372 100.645 252.298 100.645 252.216C100.645 252.135 100.645 251.994 100.645 251.882C100.711 250.704 101.227 249.595 102.085 248.785C102.943 247.974 104.079 247.522 105.259 247.522C106.44 247.522 107.576 247.974 108.434 248.785C109.292 249.595 109.807 250.704 109.874 251.882L109.808 251.86Z" fill="#7C54A2"></path><path d="M100.608 252.453V252.528C100.609 252.788 100.592 253.048 100.556 253.307C97.1696 253.453 93.7775 253.353 90.4058 253.01C89.4858 252.913 88.5732 252.802 87.6606 252.661V252.528C87.7349 250.919 88.4047 249.395 89.5398 248.252C90.6749 247.109 92.1943 246.429 93.8028 246.344C95.4112 246.259 96.9939 246.775 98.2432 247.791C99.4926 248.808 100.319 250.253 100.563 251.845C100.563 251.956 100.563 252.068 100.563 252.179C100.563 252.29 100.563 252.335 100.563 252.416L100.608 252.453Z" fill="#7C54A2"></path><path d="M87.6605 251.519C87.6618 251.898 87.6094 252.275 87.5047 252.639C85.8799 252.416 84.2624 252.12 82.6598 251.771C81.1926 251.548 79.8312 250.874 78.7646 249.842C79.133 249.019 79.7337 248.322 80.4929 247.835C81.252 247.349 82.1367 247.095 83.0382 247.104C84.2361 247.078 85.3954 247.528 86.2619 248.356C87.1284 249.183 87.6314 250.321 87.6605 251.519Z" fill="#7C54A2"></path><path d="M223.043 87.6677C224.364 93.0245 219.415 94.59 216.135 97.3723C211.684 101.178 212.181 108.019 211.328 113.814C210.16 121.468 206.057 128.367 199.887 133.045C189.5 140.835 173.021 142.868 161.558 136.265C173.644 126.434 181.086 113.012 181.086 98.2181C181.075 91.692 179.628 85.2482 176.85 79.3431C186.477 76.9352 196.525 76.7424 206.238 78.7792C210.237 79.6176 216.825 80.5525 220.528 83.7206C221.767 84.7329 222.649 86.1166 223.043 87.6677Z" fill="url(#paint0_linear_27_26917)"></path><path d="M220.528 83.7209C216.818 80.5528 210.237 79.6179 206.238 78.7795C196.525 76.7427 186.477 76.9355 176.85 79.3434C176.216 77.9832 175.519 76.6526 174.757 75.3518C182.329 71.007 191.185 69.4553 199.783 70.9669C208.397 72.5324 216.069 77.3179 220.528 83.7209Z" fill="#DBD1E8"></path><path d="M160.549 159.243C160.92 163.049 161.113 172.732 166.767 172.42C166.277 172.42 163.799 175.573 162.82 176.011C162.22 176.295 161.583 176.489 160.928 176.59C159.277 174.749 158.186 172.477 157.782 170.038C157.114 166.455 157.5 162.76 157.522 159.102C157.544 155.444 157.136 151.608 155.126 148.581C154.394 147.49 153.441 146.565 152.328 145.866C155.059 145.985 157.478 148.092 158.702 150.577C160.015 153.241 160.26 156.29 160.549 159.243ZM160.928 176.582C159.277 174.742 158.186 172.469 157.782 170.031C157.114 166.447 157.5 162.752 157.522 159.095C157.544 155.437 157.136 151.601 155.126 148.574C154.394 147.483 153.441 146.558 152.328 145.858C151.145 145.118 149.784 144.711 148.389 144.679C147.335 145.198 146.262 145.693 145.169 146.163C149.212 146.741 153.486 148.262 154.658 151.534C156.231 155.949 155.4 160.979 153.211 165.112C151.91 167.542 150.21 169.737 148.181 171.604C150.312 173.751 151.908 176.368 152.84 179.246C152.922 179.491 152.996 179.743 153.056 179.988C155.318 178.504 156.973 179.394 159.117 180.181C161.261 180.967 162.782 181.665 163.628 178.697C162.614 178.151 161.701 177.436 160.928 176.582Z" fill="url(#paint1_linear_27_26917)"></path><path d="M77.1029 171.389C74.877 171.611 72.9702 171.901 70.5886 172.049C70.5886 171.463 70.5886 170.869 70.5886 170.276C70.567 163.952 69.0411 157.723 66.1369 152.106C65.7437 151.364 65.3282 150.622 64.8831 149.961L77.4961 145.473C82.1851 147.618 87.0731 149.298 92.0901 150.488C91.6308 151.028 91.2624 151.64 90.9995 152.299C90.7241 153.22 90.8172 154.212 91.2591 155.066C91.9046 156.246 93.3292 156.75 94.9688 157.017L95.3027 157.069C101.96 158.084 108.754 156.547 114.326 152.766C118.487 152.666 122.635 152.266 126.739 151.571L122.873 162.782L122.777 162.827C119.799 164.276 116.64 165.316 113.384 165.921L113.08 165.594C112.607 165.107 112.091 164.665 111.536 164.273C111.204 163.222 110.803 162.193 110.334 161.194C110.066 160.489 109.612 159.869 109.021 159.399C108.735 159.212 108.404 159.107 108.062 159.095C107.721 159.083 107.383 159.165 107.085 159.332C106.024 159.77 104.941 161.105 105.312 162.196C105.841 163.814 106.617 165.34 107.612 166.722L104.644 167.39C103.607 166.931 102.541 166.542 101.453 166.225C100.743 165.96 99.9749 165.889 99.2276 166.017C98.8969 166.112 98.5985 166.296 98.3645 166.548C98.1305 166.801 97.9697 167.112 97.8995 167.449C97.5285 168.554 97.8253 170.283 98.9011 170.728C100.421 171.359 102.031 171.742 103.672 171.864C103.668 171.881 103.668 171.898 103.672 171.916C102.531 171.939 101.393 172.04 100.266 172.22C99.5107 172.276 98.7835 172.532 98.1592 172.962C97.8995 173.19 97.707 173.484 97.6024 173.814C97.4978 174.143 97.4851 174.495 97.5656 174.831C97.6992 175.996 98.7008 177.428 99.8657 177.376C101.162 177.312 102.444 177.077 103.679 176.679C102.937 176.961 102.151 177.28 101.401 177.628C100.702 177.907 100.086 178.362 99.6134 178.949C99.4303 179.237 99.3287 179.569 99.3196 179.91C99.3104 180.251 99.394 180.588 99.5615 180.886C100.007 181.947 101.35 183.03 102.433 182.651C103.974 182.016 105.404 181.14 106.669 180.055C109.281 181.294 112.516 180.67 114.831 178.927C115.617 179.105 116.411 179.253 117.212 179.365L116.47 181.457C116.208 182.318 116.29 183.248 116.699 184.05C117.108 184.853 117.812 185.465 118.663 185.759C119.515 186.053 120.447 186.006 121.263 185.627C122.08 185.248 122.719 184.567 123.044 183.727L124.483 179.543C125.166 179.476 125.849 179.387 126.531 179.283C127.06 181.974 127.585 184.667 128.104 187.363C128.348 187.097 128.646 186.888 128.978 186.749C129.31 186.609 129.669 186.543 130.029 186.555C130.389 186.567 130.742 186.657 131.064 186.818C131.386 186.979 131.67 187.208 131.895 187.489C132.11 187.787 132.259 188.126 132.334 188.485C132.408 188.844 132.406 189.215 132.328 189.574C132.249 189.932 132.096 190.27 131.879 190.565C131.661 190.861 131.384 191.107 131.064 191.288C131.15 191.45 131.268 191.593 131.411 191.709C131.553 191.825 131.718 191.911 131.894 191.962C132.071 192.014 132.256 192.029 132.438 192.007C132.62 191.986 132.797 191.928 132.956 191.837C133.501 191.375 134.079 190.953 134.685 190.575C135.679 190.167 136.785 190.65 137.831 190.887C138.877 191.124 140.279 190.887 140.539 189.848C139.747 188.622 139.055 187.335 138.469 185.998C139.65 185.138 141.102 184.735 142.557 184.862C140.36 181.832 139.115 178.216 138.981 174.475C140.017 173.798 141.009 173.055 141.949 172.249L142.691 171.997C143.433 173.347 143.611 173.407 144.264 174.802C145.654 173.781 146.982 172.679 148.24 171.5C150.371 173.647 151.967 176.265 152.9 179.142C152.981 179.387 153.056 179.639 153.115 179.884C154.07 183.429 154.001 187.172 152.915 190.679C153.081 191.586 153.381 192.464 153.805 193.283C154.578 194.75 155.721 195.988 157.121 196.874C155.756 197.49 154.309 198.121 152.781 198.737L151.371 199.293C147.312 200.888 143.168 202.257 138.959 203.396C136.827 203.985 134.601 204.521 132.281 205.006C128.846 205.748 125.559 206.267 122.443 206.653C119.961 207.495 117.379 208.009 114.764 208.182C110.864 208.419 106.954 207.916 103.242 206.698C99.9473 206.305 96.4602 205.741 92.8024 204.976C85.803 203.499 78.9498 201.398 72.3247 198.7C70.8409 198.091 69.357 197.461 68.0141 196.852C69.4144 195.966 70.5579 194.727 71.3305 193.261C71.7542 192.442 72.0542 191.564 72.2209 190.657C71.1858 187.302 71.0952 183.727 71.959 180.324C72.8229 176.921 74.6078 173.821 77.1177 171.366L77.1029 171.389Z" fill="url(#paint2_linear_27_26917)"></path><path d="M154.673 151.497C156.246 155.912 155.415 160.942 153.226 165.075C151.925 167.505 150.224 169.7 148.196 171.567C146.937 172.745 145.609 173.848 144.219 174.868C143.566 173.473 143.381 173.384 142.646 172.064C139.651 166.511 135.636 161.573 130.812 157.507C130.308 157.076 129.796 156.661 129.269 156.253C130.805 154.999 132.296 153.693 133.772 152.373C135.049 151.237 136.31 150.08 137.593 148.945L137.727 148.9C139.445 148.716 141.096 148.134 142.55 147.201C143.432 146.867 144.301 146.504 145.161 146.133C149.227 146.704 153.501 148.225 154.673 151.497Z" fill="url(#paint3_linear_27_26917)"></path><path d="M151.357 199.323C152.351 203.5 151.401 208.018 150.11 212.322C146.232 213.917 142.134 214.917 137.957 215.289C138.037 211.316 138.366 207.351 138.944 203.418C143.153 202.282 147.297 200.915 151.357 199.323Z" fill="url(#paint4_linear_27_26917)"></path><path d="M150.125 212.322C149.88 213.145 149.62 213.961 149.383 214.77C148.361 217.682 147.602 220.679 147.112 223.725C144.247 224.653 141.289 225.265 138.291 225.551C138.046 222.642 137.927 219.719 137.957 216.796C137.957 216.299 137.957 215.801 137.957 215.312C142.14 214.934 146.243 213.926 150.125 212.322Z" fill="url(#paint5_linear_27_26917)"></path><path d="M147.728 231.842C147.432 231.961 147.142 232.072 146.845 232.176C144.567 232.998 142.206 233.571 139.804 233.882L139.211 233.957C138.973 232.25 138.825 230.529 138.625 228.83C138.558 228.236 138.491 227.65 138.432 227.057C138.372 226.463 138.335 226.047 138.291 225.573C141.281 225.288 144.232 224.678 147.09 223.755C146.65 226.463 146.869 229.237 147.728 231.842Z" fill="url(#paint6_linear_27_26917)"></path><path d="M146.274 240.842C147.127 243.364 147.973 246.147 146.823 248.565C146.604 249.033 146.314 249.463 145.963 249.842C145.594 249.019 144.994 248.321 144.234 247.835C143.475 247.349 142.591 247.095 141.689 247.104C140.491 247.078 139.332 247.528 138.465 248.356C137.599 249.183 137.096 250.321 137.067 251.518C137.065 251.897 137.118 252.275 137.222 252.639C137.172 252.653 137.118 252.653 137.067 252.639V252.505C136.992 250.896 136.323 249.372 135.188 248.23C134.052 247.087 132.533 246.407 130.925 246.322C129.316 246.237 127.733 246.752 126.484 247.769C125.235 248.786 124.408 250.23 124.164 251.823C124.097 250.644 123.582 249.535 122.724 248.725C121.866 247.914 120.73 247.462 119.549 247.462C118.369 247.462 117.233 247.914 116.375 248.725C115.517 249.535 115.001 250.644 114.935 251.823C114.049 251.366 113.364 250.597 113.013 249.664C112.883 249.271 112.818 248.86 112.82 248.447C112.92 247.29 113.147 246.148 113.495 245.041C113.814 243.646 113.755 241.903 112.694 241.035C121.85 240.739 130.918 239.145 139.626 236.301C139.471 235.522 139.344 234.736 139.233 233.942L139.827 233.868C142.229 233.556 144.59 232.984 146.868 232.161C146.191 233.494 145.789 234.95 145.687 236.441C145.585 237.933 145.785 239.429 146.274 240.842Z" fill="#DBD1E8"></path><path d="M88.9145 28.9879C87.1755 28.9031 85.4728 28.4592 83.9137 27.6841C82.3545 26.9091 80.9728 25.8196 79.8554 24.4843C76.3163 19.951 77.407 12.6132 82.4374 9.64542C88.2691 6.16571 95.3694 7.5383 101.157 10.8029C101.486 8.90753 102.254 7.11548 103.4 5.56967C104.545 4.02386 106.035 2.76706 107.752 1.89954C109.942 0.884191 112.383 0.535549 114.769 0.897034C117.156 1.25852 119.383 2.31416 121.174 3.93246C122.759 5.44652 123.895 7.36997 124.454 9.48961C127.017 7.97407 129.897 7.07493 132.867 6.86313C136.762 6.65539 140.858 8.05766 143.254 10.9883C144.4 12.4546 145.118 14.2092 145.329 16.058C145.54 17.9069 145.235 19.778 144.449 21.4646C143.148 24.0963 140.947 26.1754 138.246 27.3259C137.144 29.748 136.624 32.3942 136.727 35.0532C136.83 37.7121 137.554 40.3101 138.84 42.6396C137.931 42.2588 136.93 42.153 135.961 42.3354C130.867 43.2998 125.722 43.9687 120.551 44.3387C118.704 44.4351 114.704 44.5019 112.842 44.539C110.98 44.5761 106.988 44.4351 105.133 44.3387C104.295 44.2942 103.457 44.2348 102.633 44.1532C98.2704 43.7822 94.071 43.0625 89.7529 42.3354C89.4933 42.289 89.2302 42.2642 88.9665 42.2612C88.9665 42.2612 88.9665 42.1945 88.9665 42.1648C90.6485 37.93 90.6299 33.2092 88.9145 28.9879Z" fill="url(#paint7_linear_27_26917)"></path><path d="M144.308 145.814C143.776 146.33 143.195 146.793 142.572 147.194C140.999 147.81 139.389 148.381 137.749 148.893L137.118 148.945C137.296 147.602 137.541 146.148 137.86 144.59C139.967 145.197 142.125 145.607 144.308 145.814Z" fill="url(#paint8_linear_27_26917)"></path><path d="M103.575 171.908C103.662 170.381 103.995 168.877 104.562 167.457L107.53 166.789C106.535 165.407 105.76 163.881 105.23 162.263C104.859 161.172 105.972 159.837 107.003 159.399C107.301 159.232 107.639 159.15 107.981 159.162C108.322 159.174 108.654 159.279 108.939 159.466C109.53 159.936 109.984 160.556 110.253 161.261C110.721 162.26 111.122 163.289 111.455 164.34C112.009 164.732 112.525 165.174 112.998 165.661L113.302 165.987C116.558 165.383 119.717 164.343 122.695 162.894L122.792 162.849C125.671 161.442 128.354 159.667 130.775 157.566C135.599 161.632 139.614 166.571 142.609 172.123L141.867 172.376C140.927 173.181 139.936 173.925 138.899 174.601C137.96 175.219 136.986 175.784 135.983 176.293C132.989 177.823 129.771 178.87 126.449 179.394C125.767 179.498 125.084 179.587 124.402 179.654C121.972 179.88 119.524 179.821 117.108 179.476C116.307 179.365 115.513 179.216 114.727 179.038C112.434 180.782 109.199 181.405 106.565 180.166C105.3 181.251 103.87 182.128 102.329 182.763C101.245 183.141 99.9026 182.058 99.4574 180.997C99.29 180.7 99.2064 180.363 99.2155 180.022C99.2247 179.681 99.3262 179.348 99.5094 179.06C99.9818 178.474 100.598 178.019 101.297 177.74C102.039 177.391 102.781 177.072 103.575 176.79H103.642C103.831 176.738 104.016 176.676 104.198 176.605L104.525 176.486C104.399 176.167 104.273 175.818 104.154 175.447C103.956 174.806 103.792 174.155 103.664 173.496C103.583 173.006 103.553 172.508 103.575 172.012C103.567 171.996 103.563 171.978 103.563 171.96C103.563 171.942 103.567 171.924 103.575 171.908Z" fill="#DBD1E8"></path><path d="M112.033 241.072C101.019 241.46 90.0178 240.003 79.4844 236.761C78.3641 236.405 77.2586 236.02 76.168 235.634C77.0162 232.984 77.2968 230.186 76.9915 227.42C76.9915 227.124 76.9396 226.834 76.9025 226.537L77.5331 226.471C97.2206 233.331 118.616 233.537 138.432 227.057C138.491 227.65 138.558 228.237 138.625 228.83C138.825 230.529 138.973 232.25 139.211 233.957C139.322 234.751 139.448 235.537 139.604 236.316C130.896 239.16 121.828 240.754 112.672 241.05L112.033 241.072Z" fill="url(#paint9_linear_27_26917)"></path><path d="M142.453 184.944C140.998 184.816 139.546 185.22 138.365 186.079C136.998 182.972 136.185 179.65 135.961 176.263C136.964 175.755 137.937 175.19 138.877 174.572C139.014 178.307 140.259 181.918 142.453 184.944ZM135.961 176.263C132.966 177.793 129.749 178.84 126.427 179.365C126.956 182.056 127.481 184.749 128 187.444C128.244 187.179 128.542 186.97 128.874 186.83C129.206 186.691 129.565 186.625 129.925 186.637C130.285 186.649 130.638 186.738 130.96 186.9C131.282 187.061 131.566 187.29 131.791 187.571C132.006 187.868 132.155 188.208 132.23 188.567C132.304 188.926 132.302 189.297 132.224 189.655C132.145 190.014 131.992 190.352 131.775 190.647C131.557 190.942 131.279 191.188 130.96 191.369C131.046 191.532 131.164 191.675 131.307 191.791C131.449 191.907 131.614 191.993 131.79 192.044C131.967 192.095 132.151 192.111 132.334 192.089C132.516 192.067 132.693 192.009 132.852 191.918C133.397 191.456 133.975 191.035 134.581 190.657C135.575 190.249 136.681 190.731 137.727 190.969C138.773 191.206 140.175 190.969 140.435 189.93C139.643 188.704 138.95 187.416 138.365 186.079C136.998 182.972 136.185 179.65 135.961 176.263Z" fill="url(#paint10_linear_27_26917)"></path><path d="M138.291 225.551C138.335 226.055 138.38 226.56 138.432 227.034C118.616 233.514 97.2207 233.308 77.5332 226.448L76.9026 226.515C76.5257 223.52 75.8902 220.564 75.0032 217.679C74.8622 217.233 74.7361 216.781 74.6025 216.336L74.469 215.876L74.8919 215.75C95.0572 223.912 117.539 224.274 137.957 216.766C137.927 219.711 138.046 222.635 138.291 225.551Z" fill="url(#paint11_linear_27_26917)"></path><path d="M138.959 203.426C138.381 207.359 138.051 211.323 137.972 215.297C137.972 215.794 137.972 216.291 137.972 216.781C117.554 224.289 95.072 223.927 74.9067 215.765L74.4838 215.891C72.8218 210.267 71.1821 204.361 72.3173 198.752C78.9424 201.451 85.7956 203.551 92.7949 205.029C96.4527 205.771 99.9398 206.357 103.234 206.75C106.947 207.968 110.856 208.471 114.756 208.234C117.372 208.061 119.953 207.548 122.436 206.706C125.552 206.32 128.839 205.778 132.274 205.058C134.608 204.554 136.837 204.01 138.959 203.426Z" fill="url(#paint12_linear_27_26917)"></path><path d="M147.736 137.742C147.738 138.489 147.666 139.234 147.521 139.967C144.815 139.798 142.139 139.315 139.545 138.528C140.184 136.661 140.927 134.83 141.77 133.045C143.544 133.607 145.361 134.026 147.201 134.299C147.558 135.412 147.738 136.573 147.736 137.742ZM139.574 138.484C139.448 138.847 139.322 139.225 139.203 139.596C138.654 141.34 138.217 143.009 137.883 144.582C139.992 145.188 142.153 145.595 144.338 145.799C145.982 144.213 147.103 142.163 147.55 139.923C144.835 139.76 142.149 139.282 139.545 138.498L139.574 138.484ZM141.8 133.001C143.574 133.563 145.39 133.982 147.231 134.254C146.582 132.265 145.392 130.496 143.796 129.142C143.099 130.3 142.453 131.583 141.756 133.015L141.8 133.001ZM136.926 126.501C136.317 127.584 135.694 128.779 135.071 130.092C137.1 131.234 139.237 132.171 141.451 132.889L141.8 133.001C142.46 131.569 143.143 130.285 143.796 129.142C141.858 127.504 139.418 126.577 136.881 126.516L136.926 126.501ZM135.071 130.092C134.208 131.904 133.441 133.758 132.771 135.649C134.778 136.745 136.888 137.642 139.07 138.328C139.24 138.38 139.411 138.439 139.589 138.484C140.229 136.616 140.972 134.786 141.815 133.001L141.466 132.889C139.235 132.179 137.08 131.247 135.034 130.107L135.071 130.092ZM139.07 138.328C136.888 137.642 134.778 136.745 132.771 135.649C132.57 136.221 132.377 136.807 132.185 137.4C131.69 138.929 131.289 140.395 130.983 141.8C133.078 142.906 135.277 143.803 137.549 144.478L137.898 144.582C138.231 143.009 138.639 141.34 139.218 139.596C139.337 139.218 139.463 138.854 139.589 138.484C139.367 138.454 139.196 138.394 139.025 138.343L139.07 138.328ZM130.983 141.8C130.56 143.618 130.241 145.324 130.04 146.882C131.518 147.932 133.229 148.607 135.026 148.848C135.518 148.915 136.014 148.95 136.51 148.952H137.104C137.282 147.609 137.527 146.155 137.846 144.597L137.497 144.493C135.228 143.818 133.031 142.921 130.938 141.815L130.983 141.8ZM131.398 127.74C132.199 128.334 133.03 128.89 133.884 129.41C134.277 129.647 134.67 129.877 135.071 130.092C135.694 128.779 136.317 127.584 136.926 126.501H136.517C134.71 126.491 132.928 126.922 131.324 127.755L131.398 127.74ZM131.398 127.74C129.908 128.511 128.608 129.603 127.592 130.938C127.518 131.287 127.436 131.68 127.347 131.999C128.608 133.04 129.944 133.985 131.346 134.826C131.814 135.108 132.296 135.382 132.778 135.642C133.448 133.751 134.216 131.896 135.078 130.085C134.677 129.87 134.284 129.64 133.891 129.402C132.986 128.905 132.155 128.356 131.324 127.755L131.398 127.74ZM131.339 134.833C129.937 133.992 128.6 133.047 127.34 132.006C126.94 133.654 126.444 135.276 125.856 136.866C125.7 137.282 125.537 137.69 125.374 138.09C126.732 139.186 128.17 140.178 129.677 141.058C130.115 141.318 130.56 141.563 131.012 141.8C131.334 140.4 131.734 138.934 132.214 137.4C132.407 136.807 132.6 136.221 132.8 135.649C132.244 135.404 131.762 135.13 131.324 134.848L131.339 134.833ZM125.344 138.09C125.349 138.105 125.349 138.12 125.344 138.135C125.446 141.027 126.667 143.767 128.749 145.777C129.158 146.177 129.597 146.544 130.063 146.875C130.278 145.317 130.582 143.61 131.005 141.793C130.552 141.555 130.107 141.31 129.669 141.051C128.14 140.18 126.68 139.196 125.299 138.105L125.344 138.09Z" fill="url(#paint13_linear_27_26917)"></path><path d="M128.683 145.799L126.694 151.579C122.583 152.275 118.428 152.674 114.259 152.774C117.294 150.716 119.862 148.045 121.797 144.931C123.137 142.774 124.294 140.508 125.255 138.157C125.363 141.053 126.592 143.793 128.683 145.799Z" fill="#DBD1E8"></path><path d="M134.982 148.864L134.655 149.813L133.772 152.373C132.288 153.694 130.805 154.999 129.269 156.253C129.796 156.661 130.307 157.077 130.812 157.507C128.392 159.607 125.708 161.383 122.829 162.79L126.694 151.579L128.683 145.799C129.091 146.199 129.53 146.566 129.996 146.897C131.474 147.947 133.185 148.622 134.982 148.864ZM117.086 179.446L116.344 181.539C116.082 182.4 116.164 183.33 116.573 184.132C116.982 184.934 117.686 185.547 118.537 185.841C119.388 186.135 120.32 186.087 121.137 185.709C121.954 185.33 122.592 184.649 122.918 183.809L124.357 179.625C121.935 179.849 119.494 179.789 117.086 179.446Z" fill="url(#paint14_linear_27_26917)"></path><path d="M111.907 248.484C111.91 248.898 111.845 249.309 111.714 249.701C111.364 250.634 110.679 251.403 109.793 251.86C109.726 250.681 109.211 249.573 108.352 248.762C107.494 247.951 106.358 247.499 105.178 247.499C103.997 247.499 102.861 247.951 102.003 248.762C101.145 249.573 100.63 250.681 100.563 251.86C100.319 250.268 99.4925 248.823 98.2432 247.806C96.9938 246.79 95.4111 246.274 93.8027 246.359C92.1942 246.444 90.6749 247.124 89.5398 248.267C88.4046 249.41 87.7349 250.934 87.6606 252.543V252.676C87.6096 252.69 87.5557 252.69 87.5048 252.676C87.6094 252.312 87.6619 251.935 87.6606 251.556C87.6314 250.358 87.1284 249.221 86.2619 248.393C85.3955 247.565 84.2362 247.115 83.0383 247.141C82.1367 247.132 81.2521 247.386 80.4929 247.872C79.7337 248.359 79.1331 249.056 78.7647 249.879C78.4091 249.485 78.1186 249.036 77.904 248.551C76.754 246.132 77.5998 243.357 78.4531 240.827C78.9458 239.509 79.2916 238.141 79.4844 236.747C90.0169 239.994 101.018 241.456 112.033 241.072C110.972 241.94 110.913 243.684 111.232 245.079C111.581 246.186 111.807 247.328 111.907 248.484Z" fill="#DBD1E8"></path><path d="M104.525 176.434L104.199 176.552L103.642 176.738H103.575C102.34 177.136 101.058 177.371 99.7618 177.435C98.5969 177.487 97.5953 176.055 97.4617 174.89C97.3812 174.554 97.3939 174.203 97.4985 173.873C97.6031 173.544 97.7956 173.249 98.0553 173.021C98.6796 172.591 99.4067 172.335 100.162 172.279C101.289 172.099 102.427 171.998 103.568 171.975C103.546 172.471 103.576 172.968 103.657 173.458C103.785 174.117 103.949 174.769 104.147 175.41C104.273 175.766 104.399 176.115 104.525 176.434Z" fill="#DBD1E8"></path><path d="M104.562 167.434C103.995 168.855 103.662 170.359 103.575 171.886C101.935 171.765 100.324 171.382 98.8045 170.751C97.7287 170.306 97.4319 168.577 97.8029 167.472C97.8731 167.135 98.0339 166.823 98.2679 166.571C98.5019 166.319 98.8003 166.135 99.131 166.04C99.8782 165.911 100.646 165.983 101.357 166.247C102.45 166.571 103.521 166.968 104.562 167.434Z" fill="#DBD1E8"></path><path d="M70.6257 170.268H69.8837C65.2472 171.703 60.3427 172.051 55.55 171.285C50.7574 170.52 46.2053 168.661 42.2463 165.854V165.609C44.1069 164.225 45.4787 162.285 46.163 160.069C46.8472 157.853 46.8086 155.477 46.0525 153.285C52.7683 154.128 59.5819 153.726 66.1517 152.098C69.0636 157.714 70.5972 163.942 70.6257 170.268Z" fill="#DBD1E8"></path><path d="M62.5236 136.176L62.4494 136.265C50.9864 142.869 34.4782 140.836 24.1206 133.045C17.951 128.367 13.8471 121.469 12.6799 113.814C11.8267 108.02 12.3386 101.201 7.87209 97.3727C4.59271 94.5904 -0.356054 93.0249 0.964605 87.6681C1.35807 86.1206 2.23695 84.7399 3.47237 83.7284C7.18209 80.5603 13.7631 79.6254 17.7622 78.787C27.4749 76.7502 37.5231 76.943 47.1506 79.3509L47.2989 79.4177C44.5371 85.3037 43.101 91.7242 43.0921 98.2259C43.0995 112.968 50.4967 126.353 62.5236 136.176Z" fill="url(#paint15_linear_27_26917)"></path><path d="M49.2576 75.3593L49.3838 75.4335C48.6418 76.7319 47.8999 78.06 47.3063 79.4103L47.1579 79.3436C37.5423 76.9413 27.5075 76.7486 17.8067 78.7797C13.8076 79.6181 7.21914 80.5529 3.51685 83.721C7.9685 77.318 15.6476 72.5325 24.2913 70.967C32.8709 69.4701 41.704 71.0241 49.2576 75.3593Z" fill="#DBD1E8"></path><path d="M34.76 154.992C35.4358 153.62 36.3304 152.367 37.4087 151.282L40.4284 151.831C40.0468 150.171 39.9267 148.461 40.0723 146.764C40.1539 145.621 41.6749 144.813 42.8249 144.82C43.1645 144.784 43.5074 144.841 43.8171 144.985C44.1268 145.128 44.3917 145.354 44.5833 145.636C44.9453 146.299 45.1197 147.048 45.0878 147.803C45.1349 148.929 45.1002 150.057 44.984 151.179V151.104C45.4209 151.804 45.7769 152.55 46.045 153.33C46.7995 155.513 46.8427 157.879 46.1681 160.088C45.4936 162.297 44.1361 164.235 42.2907 165.624V165.869C40.8992 166.258 39.4288 166.265 38.0334 165.891C36.638 165.516 35.369 164.773 34.3594 163.74C32.7711 164.243 31.1137 164.493 29.4477 164.482C28.2977 164.407 27.4815 162.886 27.4815 161.736C27.4455 161.398 27.5017 161.055 27.644 160.746C27.7864 160.436 28.0096 160.171 28.2903 159.978C28.9504 159.615 29.6961 159.435 30.4493 159.459C31.3817 159.414 32.316 159.429 33.2464 159.503H33.4616H33.9216C33.9216 159.154 33.9216 158.761 33.981 158.398C34.0438 157.729 34.1479 157.065 34.2926 156.409C34.4078 155.926 34.5718 155.457 34.7823 155.007L34.76 154.992Z" fill="#DBD1E8"></path><path d="M37.4089 151.267C36.3306 152.352 35.4359 153.605 34.7601 154.977C33.2977 154.231 31.9649 153.254 30.813 152.084C29.9894 151.253 30.3901 149.539 31.1617 148.671C31.3594 148.388 31.6301 148.164 31.9449 148.023C32.2598 147.882 32.6071 147.829 32.9498 147.869C33.6929 148.04 34.3769 148.406 34.9308 148.93C35.8102 149.651 36.6382 150.432 37.4089 151.267Z" fill="#DBD1E8"></path><path d="M34.7303 155.066C34.5199 155.516 34.3558 155.986 34.2407 156.468C34.096 157.124 33.9919 157.788 33.929 158.457C33.8919 158.85 33.8697 159.199 33.8697 159.562L33.3874 159.518H33.1723C31.7657 159.413 30.3802 159.116 29.0545 158.635C27.9638 158.234 27.5706 156.52 27.9267 155.4C27.9847 155.06 28.1341 154.743 28.3589 154.481C28.5838 154.22 28.8755 154.024 29.2029 153.916C29.9406 153.749 30.7097 153.785 31.4287 154.02C32.5532 154.288 33.6567 154.638 34.7303 155.066Z" fill="#DBD1E8"></path><path d="M117.583 57.7155C117.547 58.2899 117.465 58.8606 117.338 59.422C117.21 59.9292 117.041 60.4253 116.834 60.9059C115.565 63.8737 113.05 66.3517 112.212 69.5273C111.143 73.6302 111.714 78.7051 112.293 81.4503C105.007 78.6977 104.785 71.345 105.527 67.9766C103.182 69.9131 102.514 76.7315 102.477 79.9219C101.101 77.3902 100.476 74.5178 100.677 71.6431C100.878 68.7683 101.897 66.0109 103.612 63.6956C101.55 63.5917 99.1608 66.0921 98.1963 67.3385C98.7771 64.6641 99.718 62.0808 100.993 59.6594C101.43 58.8805 101.926 58.1364 102.477 57.4336C105.773 58.1097 109.14 58.3788 112.501 58.2349C114.185 58.1013 115.892 57.953 117.583 57.7155Z" fill="#010101"></path><path d="M138.832 42.6394C140.977 43.552 142.104 46.03 141.392 48.7975C141.329 49.0489 141.253 49.2966 141.162 49.5394C140.153 52.2549 137.564 54.043 134.997 55.3859C129.098 58.4576 119.453 60.0008 112.835 60.0973C106.202 60.0157 96.5714 58.4724 90.6729 55.3934C88.1058 54.0505 85.5238 52.2624 84.5148 49.5469C84.3653 49.1471 84.251 48.735 84.1735 48.3152C83.5874 45.0952 85.5016 42.3797 88.5361 42.2758H88.9368C89.2005 42.2788 89.4636 42.3036 89.7232 42.35C94.0413 43.092 98.2407 43.7968 102.603 44.1678C103.427 44.2494 104.265 44.3087 105.104 44.3533C106.959 44.4497 110.958 44.5165 112.813 44.5536C114.667 44.5907 118.674 44.4497 120.521 44.3533C125.692 43.9833 130.838 43.3144 135.931 42.35C136.906 42.1584 137.915 42.2591 138.832 42.6394Z" fill="url(#paint16_linear_27_26917)"></path><path d="M152.328 145.866C153.441 146.565 154.393 147.49 155.125 148.581C157.136 151.608 157.537 155.444 157.522 159.102C157.507 162.76 157.114 166.455 157.782 170.038C158.187 172.474 159.279 174.744 160.927 176.582C161.709 177.418 162.628 178.116 163.643 178.645C162.797 181.613 161.373 180.952 159.132 180.129C156.891 179.305 155.333 178.467 153.07 179.936" stroke="#D19B2A" stroke-width="1.48389" stroke-linecap="round" stroke-linejoin="round"></path><path d="M148.389 144.679C149.781 144.728 151.134 145.151 152.306 145.903" stroke="#D19B2A" stroke-width="1.48389" stroke-linecap="round" stroke-linejoin="round"></path><path d="M152.321 145.866C155.051 145.984 157.47 148.092 158.694 150.577C160.008 153.241 160.252 156.29 160.542 159.243C160.913 163.049 161.106 172.731 166.759 172.42C166.27 172.42 163.791 175.573 162.812 176.011C162.213 176.294 161.576 176.489 160.92 176.59" stroke="#D19B2A" stroke-width="1.48389" stroke-linecap="round" stroke-linejoin="round"></path><path d="M88.9146 28.9878C90.6323 33.2082 90.6535 37.929 88.9739 42.1647C88.9739 42.1647 88.9739 42.2315 88.9739 42.2612" stroke="#D19B2A" stroke-width="1.48389" stroke-linecap="round" stroke-linejoin="round"></path><path d="M108.539 16.671C106.427 14.2946 103.931 12.2883 101.157 10.7355C95.3694 7.47096 88.269 6.09836 82.4374 9.57807C77.407 12.5458 76.3163 19.9208 79.8554 24.4169C80.9714 25.7549 82.3526 26.8472 83.9118 27.6249C85.4709 28.4026 87.1743 28.8488 88.9145 28.9354H89.2707C91.5427 29.0634 93.8111 28.6275 95.874 27.6666" stroke="#D19B2A" stroke-width="1.48389" stroke-linecap="round" stroke-linejoin="round"></path><path d="M124.454 9.48938C127.017 7.97383 129.897 7.07469 132.867 6.8629C136.762 6.65516 140.858 8.05743 143.254 10.9881C144.4 12.4544 145.118 14.2089 145.329 16.0578C145.54 17.9066 145.235 19.7778 144.449 21.4643C143.148 24.0961 140.947 26.1752 138.246 27.3257C137.432 27.7008 136.582 27.9917 135.709 28.1938C131.884 28.979 127.905 28.3377 124.52 26.3908" stroke="#D19B2A" stroke-width="1.48389" stroke-linecap="round" stroke-linejoin="round"></path><path d="M138.832 42.6394C137.546 40.3099 136.823 37.7119 136.72 35.0529C136.617 32.394 137.137 29.7478 138.239 27.3257" stroke="#D19B2A" stroke-width="1.48389" stroke-linecap="round" stroke-linejoin="round"></path><path d="M101.156 10.7507C101.486 8.85534 102.254 7.0633 103.4 5.51749C104.545 3.97168 106.035 2.71488 107.752 1.84736C109.947 0.838784 112.39 0.498665 114.777 0.869417C117.164 1.24017 119.389 2.30538 121.174 3.93222C122.759 5.44628 123.894 7.36973 124.454 9.48937C125.174 12.0342 125.039 14.7453 124.068 17.2056" stroke="#D19B2A" stroke-width="1.48389" stroke-linecap="round" stroke-linejoin="round"></path><path d="M77.1029 171.389C74.877 171.611 72.9702 171.901 70.5886 172.049C70.5886 171.463 70.5886 170.869 70.5886 170.276C70.567 163.952 69.0411 157.723 66.1369 152.106C65.7437 151.364 65.3282 150.622 64.8831 149.961L77.4961 145.473" stroke="#4B2A7A" stroke-width="1.48389" stroke-linecap="round" stroke-linejoin="round"></path><path d="M103.264 206.757C106.976 207.975 110.886 208.478 114.786 208.241C117.401 208.068 119.983 207.555 122.465 206.713C128.401 204.702 133.557 200.903 136.562 196.081" stroke="#4B2A7A" stroke-width="1.48389" stroke-linecap="round" stroke-linejoin="round"></path><path d="M91.1033 199.019C94.3838 202.645 98.5826 205.319 103.256 206.758" stroke="#4B2A7A" stroke-width="1.48389" stroke-linecap="round" stroke-linejoin="round"></path><path d="M81.0574 153.626C80.5534 155.044 80.381 156.558 80.5533 158.053C80.7257 159.547 81.2382 160.982 82.0516 162.248C82.2474 162.562 82.4656 162.862 82.7045 163.146C83.8047 164.431 85.2181 165.41 86.8078 165.988C88.3976 166.567 90.1097 166.725 91.7785 166.447" stroke="#4B2A7A" stroke-width="1.48389" stroke-linecap="round" stroke-linejoin="round"></path><path d="M100.533 103.798C104.441 100.754 109.313 99.2188 114.259 99.4724C119.164 99.6412 123.832 101.621 127.362 105.03" stroke="#4B2A7A" stroke-width="1.48389" stroke-linecap="round" stroke-linejoin="round"></path><path d="M220.535 83.728C221.771 84.7396 222.649 86.1203 223.043 87.6677C224.364 93.0246 219.415 94.5901 216.135 97.3724C211.684 101.179 212.181 108.019 211.328 113.814C210.16 121.468 206.057 128.367 199.887 133.045C189.5 140.835 173.021 142.868 161.558 136.265" stroke="#4B2A7A" stroke-width="1.48389" stroke-linecap="round" stroke-linejoin="round"></path><path d="M176.85 79.3431C186.477 76.9352 196.525 76.7424 206.238 78.7792C210.237 79.6176 216.826 80.5525 220.528 83.7206" stroke="#4B2A7A" stroke-width="1.48389" stroke-linecap="round" stroke-linejoin="round"></path><path d="M85.6647 171.144C84.5994 171.527 83.4366 171.544 82.361 171.19C81.2855 170.836 80.3591 170.133 79.7292 169.193C79.4449 168.781 79.2386 168.321 79.1208 167.835C78.906 166.711 79.0771 165.548 79.6064 164.534C80.1357 163.52 80.9921 162.714 82.0366 162.248" stroke="#4B2A7A" stroke-width="1.48389" stroke-linecap="round" stroke-linejoin="round"></path><path d="M74.8918 215.772C95.0572 223.934 117.539 224.297 137.957 216.788" stroke="#4B2A7A" stroke-width="1.48389" stroke-linecap="round" stroke-linejoin="round"></path><path d="M77.5332 226.471C97.2207 233.331 118.616 233.537 138.432 227.057" stroke="#4B2A7A" stroke-width="1.48389" stroke-linecap="round" stroke-linejoin="round"></path><path d="M72.2059 190.679C71.1708 187.325 71.0801 183.749 71.944 180.346C72.8078 176.943 74.5927 173.844 77.1027 171.389C77.914 170.569 78.7981 169.824 79.744 169.163" stroke="#4B2A7A" stroke-width="1.48389" stroke-linecap="round" stroke-linejoin="round"></path><path d="M72.8961 192.593C72.6389 191.98 72.4089 191.349 72.2061 190.701" stroke="#4B2A7A" stroke-width="1.48389" stroke-linecap="round" stroke-linejoin="round"></path><path d="M97.1945 111.336C95.8891 117.448 96.1701 123.793 98.0106 129.766C98.9751 132.889 100.37 135.924 100.711 139.174C100.937 141.104 100.639 143.059 99.8506 144.835" stroke="#4B2A7A" stroke-width="1.48389" stroke-linecap="round" stroke-linejoin="round"></path><path d="M104.614 140.969C104.476 142.108 103.9 143.147 103.008 143.868C102.116 144.588 100.978 144.932 99.836 144.827C99.1818 144.779 98.5449 144.595 97.9663 144.286C96.3118 143.403 91.3704 139.515 91.5634 144.397C91.6153 145.881 93.5963 146.816 93.6408 147.966C93.6408 148.507 92.8469 149.502 92.1569 150.474" stroke="#4B2A7A" stroke-width="1.48389" stroke-linecap="round" stroke-linejoin="round"></path><path d="M220.535 83.7282C216.084 77.3252 208.404 72.5397 199.761 70.9742C191.163 69.4626 182.307 71.0143 174.735 75.3591" stroke="#4B2A7A" stroke-width="1.48389" stroke-linecap="round" stroke-linejoin="round"></path><path d="M3.47974 83.7206C7.18945 80.5525 13.7705 79.6176 17.7696 78.7792C27.4823 76.7424 37.5305 76.9352 47.1579 79.3431" stroke="#4B2A7A" stroke-width="1.48389" stroke-linecap="round" stroke-linejoin="round"></path><path d="M62.4494 136.265C50.9864 142.868 34.4782 140.835 24.1206 133.045C17.951 128.367 13.8471 121.468 12.6799 113.814C11.8267 108.019 12.3386 101.201 7.87209 97.3724C4.59271 94.5901 -0.356054 93.0246 0.964605 87.6677C1.35807 86.1203 2.23695 84.7396 3.47237 83.728" stroke="#4B2A7A" stroke-width="1.48389" stroke-linecap="round" stroke-linejoin="round"></path><path d="M49.2578 75.359C41.6854 71.0081 32.8259 69.4536 24.2246 70.9667C15.6106 72.5322 7.93895 77.3177 3.4502 83.7207" stroke="#4B2A7A" stroke-width="1.48389" stroke-linecap="round" stroke-linejoin="round"></path><path d="M152.914 190.679C152.717 191.327 152.487 191.958 152.224 192.571" stroke="#4B2A7A" stroke-width="1.48389" stroke-linecap="round" stroke-linejoin="round"></path><path d="M148.196 171.567C150.327 173.714 151.923 176.331 152.855 179.209C152.937 179.454 153.011 179.706 153.07 179.951C154.027 183.471 153.973 187.189 152.915 190.679" stroke="#4B2A7A" stroke-width="1.48389" stroke-linecap="round" stroke-linejoin="round"></path><path d="M46.082 153.3C52.7889 154.135 59.5922 153.727 66.1516 152.098" stroke="#4B2A7A" stroke-width="1.48389" stroke-linecap="round" stroke-linejoin="round"></path><path d="M84.1736 48.3003C68.8079 53.6794 56.3878 63.3692 49.3839 75.4331C48.6419 76.7315 47.9 78.0596 47.3064 79.41C44.5446 85.296 43.1085 91.7165 43.0996 98.2182C43.0996 112.968 50.519 126.353 62.5237 136.176C67.1098 139.9 72.154 143.022 77.5332 145.465C82.2222 147.61 87.1102 149.29 92.1272 150.481" stroke="#4B2A7A" stroke-width="1.48389" stroke-linecap="round" stroke-linejoin="round"></path><path d="M137.593 148.945C136.629 149.249 135.649 149.546 134.625 149.813" stroke="#4B2A7A" stroke-width="1.48389" stroke-linecap="round" stroke-linejoin="round"></path><path d="M141.392 48.7979C156.083 54.2511 167.946 63.6886 174.78 75.352C175.541 76.6578 176.239 77.9884 176.872 79.3436C179.65 85.2487 181.097 91.6925 181.108 98.2187C181.108 113.013 173.689 126.413 161.58 136.266C157.518 139.564 153.092 142.387 148.389 144.679C147.335 145.199 146.262 145.693 145.169 146.163" stroke="#4B2A7A" stroke-width="1.48389" stroke-linecap="round" stroke-linejoin="round"></path><path d="M114.259 152.773C118.42 152.673 122.568 152.274 126.672 151.579" stroke="#4B2A7A" stroke-width="1.48389" stroke-linecap="round" stroke-linejoin="round"></path><path d="M141.392 48.7977C141.329 49.0491 141.253 49.2968 141.162 49.5396C140.153 52.2551 137.564 54.0432 134.997 55.3861C129.098 58.4578 119.453 60.001 112.835 60.0975C106.202 60.0159 96.5714 58.4726 90.6729 55.3936C88.1058 54.0506 85.5238 52.2626 84.5148 49.547C84.3653 49.1473 84.251 48.7352 84.1735 48.3154C83.5874 45.0954 85.5016 42.3799 88.5361 42.276H88.9368C89.2005 42.279 89.4636 42.3038 89.7232 42.3502C94.0413 43.0921 98.2407 43.797 102.603 44.168C103.427 44.2496 104.265 44.3089 105.104 44.3534C106.959 44.4499 110.958 44.5167 112.813 44.5538C114.667 44.5909 118.674 44.4499 120.521 44.3534C125.692 43.9835 130.838 43.3146 135.931 42.3502C136.9 42.1678 137.901 42.2736 138.81 42.6544C140.969 43.5521 142.104 46.0006 141.392 48.7977Z" stroke="#4B2A7A" stroke-width="1.48389" stroke-linecap="round" stroke-linejoin="round"></path><path d="M126.427 179.364C126.956 182.055 127.481 184.749 128 187.444C128.244 187.179 128.542 186.969 128.874 186.83C129.206 186.691 129.565 186.625 129.925 186.637C130.285 186.649 130.638 186.738 130.96 186.899C131.282 187.061 131.566 187.289 131.791 187.57C132.006 187.868 132.155 188.208 132.23 188.567C132.304 188.926 132.302 189.297 132.224 189.655C132.145 190.014 131.992 190.351 131.775 190.647C131.557 190.942 131.279 191.188 130.96 191.369C131.046 191.531 131.164 191.675 131.307 191.791C131.449 191.907 131.614 191.993 131.79 192.044C131.967 192.095 132.151 192.11 132.334 192.089C132.516 192.067 132.693 192.009 132.852 191.918C133.397 191.456 133.975 191.035 134.581 190.657C135.575 190.249 136.681 190.731 137.727 190.968C138.773 191.206 140.175 190.968 140.435 189.93C139.643 188.704 138.95 187.416 138.365 186.079C136.998 182.972 136.185 179.65 135.961 176.263" stroke="#D19B2A" stroke-width="1.48389" stroke-linecap="round" stroke-linejoin="round"></path><path d="M138.877 174.572C139.011 178.312 140.256 181.928 142.453 184.959C140.998 184.831 139.546 185.234 138.365 186.094" stroke="#D19B2A" stroke-width="1.48389" stroke-linecap="round" stroke-linejoin="round"></path><path d="M33.9143 161.091C33.9143 160.66 33.8623 160.134 33.8772 159.54C33.8772 159.191 33.8772 158.798 33.9365 158.435C33.9994 157.766 34.1035 157.102 34.2481 156.446C34.3633 155.963 34.5274 155.493 34.7378 155.044V154.992C35.4136 153.62 36.3083 152.367 37.3866 151.282L40.4063 151.831" stroke="#4B2A7A" stroke-width="1.48389" stroke-linecap="round" stroke-linejoin="round"></path><path d="M33.2021 159.517C32.2716 159.443 31.3373 159.428 30.405 159.473C29.6518 159.449 28.9061 159.629 28.2459 159.992C27.9692 160.186 27.7496 160.451 27.61 160.759C27.4704 161.067 27.4158 161.407 27.452 161.743C27.452 162.893 28.2682 164.414 29.4182 164.488C31.0842 164.5 32.7416 164.249 34.3299 163.746C35.3395 164.78 36.6085 165.523 38.0039 165.897C39.3993 166.272 40.8697 166.265 42.2612 165.876C46.2202 168.683 50.7723 170.542 55.5649 171.307C60.3575 172.073 65.262 171.725 69.8986 170.29" stroke="#4B2A7A" stroke-width="1.48389" stroke-linecap="round" stroke-linejoin="round"></path><path d="M33.7888 159.518C33.6624 159.518 33.5436 159.518 33.4172 159.518" stroke="#4B2A7A" stroke-width="1.48389" stroke-linecap="round" stroke-linejoin="round"></path><path d="M33.9142 159.518H33.8771H33.3874H33.1723C31.7657 159.413 30.3802 159.116 29.0545 158.635C27.9638 158.234 27.5706 156.52 27.9267 155.4C27.9847 155.06 28.1341 154.743 28.3589 154.481C28.5838 154.22 28.8755 154.024 29.2029 153.916C29.9406 153.749 30.7097 153.785 31.4287 154.02C32.5379 154.288 33.6265 154.635 34.6858 155.059" stroke="#4B2A7A" stroke-width="1.48389" stroke-linecap="round" stroke-linejoin="round"></path><path d="M34.7823 154.999C33.3199 154.253 31.9871 153.276 30.8352 152.105C30.0117 151.275 30.4123 149.561 31.1839 148.693C31.3816 148.41 31.6523 148.186 31.9672 148.045C32.2821 147.904 32.6293 147.851 32.972 147.891C33.7152 148.062 34.3991 148.428 34.953 148.952C35.8319 149.668 36.66 150.444 37.4311 151.275" stroke="#4B2A7A" stroke-width="1.48389" stroke-linecap="round" stroke-linejoin="round"></path><path d="M36.511 161.81C36.7351 160.894 37.1956 160.052 37.8465 159.368C38.4973 158.685 39.3159 158.184 40.2207 157.915C39.4046 156.045 39.3304 153.508 40.4507 151.809C40.0691 150.149 39.9489 148.439 40.0946 146.742C40.1762 145.599 41.6972 144.79 42.8472 144.798C43.1867 144.762 43.5297 144.819 43.8394 144.962C44.1491 145.106 44.4139 145.331 44.6056 145.614C44.9675 146.277 45.142 147.026 45.1101 147.78C45.1572 148.907 45.1225 150.035 45.0062 151.156V151.082C45.4432 151.781 45.7991 152.528 46.0672 153.308C46.8247 155.496 46.867 157.868 46.1882 160.082C45.5094 162.296 44.1445 164.236 42.2907 165.624" stroke="#4B2A7A" stroke-width="1.48389" stroke-linecap="round" stroke-linejoin="round"></path><path d="M78.7647 249.842C78.4124 249.459 78.122 249.023 77.904 248.551C76.754 246.132 77.5998 243.357 78.4531 240.827C78.9458 239.509 79.2916 238.141 79.4844 236.747" stroke="#4B2A7A" stroke-width="1.48389" stroke-linecap="round" stroke-linejoin="round"></path><path d="M87.6609 252.661C87.6099 252.675 87.5559 252.675 87.5049 252.661" stroke="#4B2A7A" stroke-width="1.48389" stroke-linecap="round" stroke-linejoin="round"></path><path d="M100.816 253.299H100.556" stroke="#4B2A7A" stroke-width="1.48389" stroke-linecap="round" stroke-linejoin="round"></path><path d="M112.07 241.035C112.055 241.043 112.042 241.056 112.033 241.072C110.972 241.94 110.913 243.683 111.232 245.078C111.581 246.185 111.807 247.327 111.907 248.484C111.91 248.897 111.845 249.308 111.714 249.701C111.364 250.634 110.679 251.403 109.793 251.86" stroke="#4B2A7A" stroke-width="1.48389" stroke-linecap="round" stroke-linejoin="round"></path><path d="M100.563 251.845C100.63 250.667 101.145 249.558 102.003 248.747C102.861 247.937 103.997 247.485 105.178 247.485C106.358 247.485 107.494 247.937 108.352 248.747C109.211 249.558 109.726 250.667 109.793 251.845C109.659 251.92 109.518 251.986 109.377 252.053C108.331 252.484 107.225 252.754 106.098 252.854C104.357 253.067 102.608 253.216 100.852 253.3C100.748 253.027 100.679 252.743 100.645 252.454" stroke="#4B2A7A" stroke-width="1.48389" stroke-linecap="round" stroke-linejoin="round"></path><path d="M100.578 252.202C100.578 252.098 100.578 251.979 100.578 251.867" stroke="#4B2A7A" stroke-width="1.48389" stroke-linecap="round" stroke-linejoin="round"></path><path d="M78.7646 249.842C79.133 249.019 79.7337 248.322 80.4929 247.835C81.252 247.349 82.1367 247.095 83.0382 247.104C84.2361 247.078 85.3954 247.528 86.2619 248.356C87.1284 249.183 87.6314 250.321 87.6605 251.519C87.6618 251.898 87.6094 252.275 87.5047 252.639C85.8799 252.416 84.2624 252.12 82.6598 251.771C81.1926 251.548 79.8312 250.874 78.7646 249.842Z" stroke="#4B2A7A" stroke-width="1.48389" stroke-linecap="round" stroke-linejoin="round"></path><path d="M100.578 252.201C100.578 252.283 100.578 252.357 100.578 252.438V252.528C100.579 252.788 100.562 253.048 100.526 253.307C97.1398 253.453 93.7477 253.353 90.376 253.01C89.456 252.913 88.5434 252.802 87.6309 252.661V252.528C87.7052 250.919 88.3749 249.395 89.51 248.252C90.6451 247.109 92.1645 246.429 93.773 246.344C95.3814 246.259 96.9641 246.775 98.2134 247.791C99.4628 248.808 100.29 250.253 100.533 251.845C100.563 251.978 100.57 252.09 100.578 252.201Z" stroke="#4B2A7A" stroke-width="1.48389" stroke-linecap="round" stroke-linejoin="round"></path><path d="M145.963 249.842C146.314 249.464 146.604 249.033 146.823 248.566C147.973 246.147 147.127 243.372 146.274 240.842C145.784 239.433 145.581 237.94 145.68 236.451C145.778 234.962 146.174 233.509 146.845 232.176" stroke="#4B2A7A" stroke-width="1.48389" stroke-linecap="round" stroke-linejoin="round"></path><path d="M137.067 252.661C137.118 252.675 137.172 252.675 137.223 252.661" stroke="#4B2A7A" stroke-width="1.48389" stroke-linecap="round" stroke-linejoin="round"></path><path d="M123.905 253.299H124.165" stroke="#4B2A7A" stroke-width="1.48389" stroke-linecap="round" stroke-linejoin="round"></path><path d="M112.657 241.035C113.718 241.903 113.777 243.646 113.458 245.041C113.109 246.148 112.883 247.29 112.783 248.447C112.78 248.86 112.846 249.271 112.976 249.663C113.327 250.596 114.011 251.366 114.897 251.823" stroke="#4B2A7A" stroke-width="1.48389" stroke-linecap="round" stroke-linejoin="round"></path><path d="M124.164 251.845C124.097 250.667 123.582 249.558 122.724 248.747C121.866 247.937 120.73 247.485 119.549 247.485C118.369 247.485 117.233 247.937 116.375 248.747C115.517 249.558 115.001 250.667 114.934 251.845L115.35 252.053C116.409 252.483 117.527 252.748 118.666 252.84C120.407 253.052 122.156 253.201 123.912 253.285C124.016 253.012 124.085 252.728 124.12 252.439" stroke="#4B2A7A" stroke-width="1.48389" stroke-linecap="round" stroke-linejoin="round"></path><path d="M124.12 252.439C124.12 252.372 124.12 252.305 124.12 252.238V252.157" stroke="#4B2A7A" stroke-width="1.48389" stroke-linecap="round" stroke-linejoin="round"></path><path d="M145.963 249.842C145.594 249.019 144.994 248.322 144.234 247.835C143.475 247.349 142.591 247.095 141.689 247.104C140.491 247.078 139.332 247.528 138.465 248.356C137.599 249.183 137.096 250.321 137.067 251.519C137.065 251.898 137.118 252.275 137.222 252.639C138.847 252.416 140.465 252.12 142.067 251.771C143.535 251.548 144.896 250.874 145.963 249.842Z" stroke="#4B2A7A" stroke-width="1.48389" stroke-linecap="round" stroke-linejoin="round"></path><path d="M124.12 252.439V252.528C124.118 252.788 124.135 253.049 124.172 253.307C127.548 253.449 130.93 253.347 134.292 253.002C135.212 252.906 136.124 252.795 137.037 252.654V252.52C136.963 250.911 136.293 249.387 135.158 248.245C134.023 247.102 132.503 246.422 130.895 246.337C129.286 246.252 127.704 246.767 126.454 247.784C125.205 248.801 124.378 250.245 124.135 251.838C124.142 251.934 124.142 252.031 124.135 252.127C124.139 252.231 124.134 252.335 124.12 252.439Z" stroke="#4B2A7A" stroke-width="1.48389" stroke-linecap="round" stroke-linejoin="round"></path><path d="M138.001 215.297C142.179 214.925 146.276 213.924 150.154 212.329" stroke="#4B2A7A" stroke-width="1.48389" stroke-linecap="round" stroke-linejoin="round"></path><path d="M147.09 223.726C144.232 224.651 141.281 225.263 138.291 225.551" stroke="#4B2A7A" stroke-width="1.48389" stroke-linecap="round" stroke-linejoin="round"></path><path d="M104.451 176.471L104.199 176.553L103.642 176.738" stroke="#4B2A7A" stroke-width="1.48389" stroke-linecap="round" stroke-linejoin="round"></path><path d="M105.17 177.851C104.97 177.465 104.747 176.99 104.525 176.434C104.399 176.115 104.273 175.766 104.154 175.395C103.956 174.754 103.792 174.103 103.664 173.444C103.583 172.954 103.553 172.456 103.575 171.96C103.571 171.943 103.571 171.925 103.575 171.908C103.662 170.381 103.995 168.877 104.562 167.456L107.53 166.789" stroke="#4B2A7A" stroke-width="1.48389" stroke-linecap="round" stroke-linejoin="round"></path><path d="M104.562 176.419H104.525L104.199 176.538C104.017 176.61 103.831 176.671 103.642 176.723H103.575C102.34 177.121 101.058 177.356 99.7618 177.421C98.5969 177.473 97.5953 176.041 97.4617 174.876C97.3812 174.54 97.3939 174.188 97.4985 173.858C97.6031 173.529 97.7956 173.234 98.0553 173.006C98.6796 172.577 99.4067 172.321 100.162 172.264C101.289 172.085 102.427 171.983 103.568 171.96" stroke="#4B2A7A" stroke-width="1.48389" stroke-linecap="round" stroke-linejoin="round"></path><path d="M103.597 171.908C101.957 171.787 100.346 171.404 98.8267 170.773C97.7509 170.328 97.4541 168.599 97.8251 167.493C97.8953 167.157 98.0561 166.845 98.2901 166.593C98.5241 166.341 98.8225 166.157 99.1532 166.062C99.9005 165.933 100.668 166.005 101.379 166.269C102.467 166.587 103.533 166.976 104.569 167.434" stroke="#4B2A7A" stroke-width="1.48389" stroke-linecap="round" stroke-linejoin="round"></path><path d="M111.514 164.363V164.289C112.068 164.68 112.585 165.122 113.057 165.609" stroke="#4B2A7A" stroke-width="1.48389" stroke-linecap="round" stroke-linejoin="round"></path><path d="M107.582 166.737C106.587 165.355 105.812 163.829 105.282 162.211C104.911 161.12 106.024 159.785 107.055 159.347C107.353 159.18 107.691 159.098 108.033 159.11C108.374 159.122 108.706 159.227 108.991 159.414C109.582 159.884 110.036 160.504 110.305 161.209C110.773 162.208 111.174 163.237 111.507 164.288" stroke="#4B2A7A" stroke-width="1.48389" stroke-linecap="round" stroke-linejoin="round"></path><path d="M125.299 138.105C126.657 139.201 128.096 140.193 129.603 141.073C130.04 141.332 130.485 141.577 130.938 141.815C133.034 142.921 135.233 143.818 137.504 144.493L137.853 144.597C139.962 145.203 142.123 145.61 144.308 145.814" stroke="#D19B2A" stroke-width="1.48389" stroke-linecap="round" stroke-linejoin="round"></path><path d="M117.086 179.446L116.344 181.539C116.082 182.4 116.164 183.33 116.573 184.132C116.982 184.934 117.686 185.547 118.537 185.841C119.388 186.135 120.32 186.087 121.137 185.708C121.954 185.329 122.592 184.649 122.918 183.809L124.357 179.624" stroke="#D19B2A" stroke-width="1.48389" stroke-linecap="round" stroke-linejoin="round"></path><path d="M122.821 162.797V162.79L126.687 151.579L128.683 145.799" stroke="#D19B2A" stroke-width="1.48389" stroke-linecap="round" stroke-linejoin="round"></path><path d="M133.765 152.373L134.655 149.813L134.982 148.863" stroke="#D19B2A" stroke-width="1.48389" stroke-linecap="round" stroke-linejoin="round"></path><path d="M72.3024 198.759C71.1672 204.368 72.8069 210.274 74.4689 215.898L74.6024 216.358C74.736 216.803 74.8621 217.256 75.0031 217.701C75.8901 220.586 76.5256 223.543 76.9025 226.538C76.9025 226.834 76.9692 227.124 76.9915 227.421C77.2967 230.186 77.0161 232.984 76.1679 235.634C77.2586 236.027 78.3938 236.376 79.4844 236.762C90.0178 240.004 101.019 241.461 112.033 241.072H112.672C121.828 240.777 130.896 239.183 139.604 236.339C139.448 235.56 139.322 234.773 139.211 233.979C138.973 232.273 138.825 230.552 138.625 228.852C138.558 228.259 138.491 227.673 138.432 227.079C138.372 226.486 138.335 226.07 138.291 225.595C138.046 222.687 137.927 219.764 137.957 216.84C137.957 216.343 137.957 215.846 137.957 215.357C138.037 211.383 138.366 207.418 138.944 203.485" stroke="#D19B2A" stroke-width="1.48389" stroke-linecap="round" stroke-linejoin="round"></path><path d="M151.356 199.323C152.351 203.5 151.401 208.018 150.11 212.322C149.865 213.145 149.605 213.961 149.368 214.77C148.347 217.682 147.587 220.679 147.098 223.725C146.652 226.443 146.871 229.228 147.736 231.842C147.439 231.961 147.15 232.072 146.853 232.176C144.575 232.999 142.214 233.571 139.812 233.882L139.218 233.957" stroke="#D19B2A" stroke-width="1.48389" stroke-linecap="round" stroke-linejoin="round"></path><path d="M72.2058 190.679C72.0392 191.586 71.7391 192.464 71.3155 193.283C70.5429 194.75 69.3994 195.988 67.999 196.874C69.3568 197.483 70.7887 198.113 72.3097 198.722C78.9348 201.42 85.788 203.521 92.7873 204.999C96.4451 205.741 99.9323 206.327 103.226 206.72" stroke="#4B2A7A" stroke-width="1.48389" stroke-linecap="round" stroke-linejoin="round"></path><path d="M121.857 206.757L122.458 206.683C125.574 206.297 128.861 205.756 132.296 205.036C134.606 204.541 136.832 204.005 138.973 203.426C143.173 202.286 147.307 200.916 151.356 199.323L152.766 198.766C154.294 198.151 155.734 197.52 157.106 196.904C155.706 196.018 154.563 194.779 153.79 193.313C153.366 192.494 153.066 191.616 152.9 190.709" stroke="#4B2A7A" stroke-width="1.48389" stroke-linecap="round" stroke-linejoin="round"></path><path d="M122.829 162.789C125.708 161.383 128.392 159.607 130.812 157.507" stroke="#4B2A7A" stroke-width="1.48389" stroke-linecap="round" stroke-linejoin="round"></path><path d="M113.339 165.935C116.595 165.331 119.755 164.29 122.732 162.841L122.829 162.797" stroke="#4B2A7A" stroke-width="1.48389" stroke-linecap="round" stroke-linejoin="round"></path><path d="M103.575 176.76C102.833 177.042 102.047 177.361 101.297 177.71C100.598 177.989 99.9818 178.444 99.5094 179.031C99.3262 179.318 99.2247 179.651 99.2155 179.992C99.2064 180.333 99.29 180.67 99.4574 180.967C99.9026 182.028 101.245 183.111 102.329 182.733C103.87 182.098 105.3 181.221 106.565 180.136C109.177 181.375 112.412 180.752 114.727 179.008C115.513 179.186 116.307 179.335 117.108 179.446C119.524 179.791 121.972 179.851 124.402 179.624C125.084 179.557 125.767 179.468 126.449 179.364C129.771 178.84 132.989 177.793 135.983 176.263C136.986 175.754 137.96 175.189 138.899 174.572C139.936 173.895 140.927 173.151 141.867 172.346" stroke="#4B2A7A" stroke-width="1.48389" stroke-linecap="round" stroke-linejoin="round"></path><path d="M142.572 147.194C143.455 146.86 144.323 146.496 145.183 146.125C149.227 146.704 153.501 148.225 154.673 151.497C156.246 155.912 155.415 160.942 153.226 165.075C151.925 167.505 150.224 169.7 148.196 171.567C146.937 172.746 145.609 173.848 144.219 174.868C143.566 173.474 143.381 173.384 142.646 172.064C139.651 166.511 135.636 161.573 130.812 157.507C130.308 157.077 129.796 156.661 129.269 156.253C130.805 154.999 132.296 153.693 133.772 152.373C135.049 151.237 136.31 150.08 137.593 148.945L137.727 148.9" stroke="#4B2A7A" stroke-width="1.48389" stroke-linecap="round" stroke-linejoin="round"></path><path d="M125.277 138.15C125.379 141.042 126.6 143.782 128.683 145.792C129.091 146.191 129.53 146.558 129.996 146.89C131.474 147.94 133.185 148.614 134.982 148.856C135.474 148.922 135.969 148.957 136.466 148.96H137.059L137.69 148.908C139.407 148.723 141.059 148.142 142.512 147.209C143.78 146.39 144.87 145.327 145.72 144.081C146.57 142.835 147.162 141.431 147.461 139.952C147.606 139.219 147.678 138.474 147.676 137.727C147.678 134.813 146.546 132.012 144.521 129.917C142.495 127.822 139.734 126.597 136.822 126.501H136.518C134.726 126.496 132.959 126.924 131.368 127.747C129.878 128.518 128.578 129.61 127.562 130.945" stroke="#D19B2A" stroke-width="1.48389" stroke-linecap="round" stroke-linejoin="round"></path><path d="M137.096 148.952C137.274 147.609 137.519 146.155 137.838 144.597C138.157 143.039 138.58 141.355 139.159 139.611C139.278 139.233 139.404 138.869 139.53 138.498C140.17 136.631 140.913 134.8 141.756 133.015C142.416 131.583 143.099 130.3 143.751 129.157" stroke="#D19B2A" stroke-width="1.48389" stroke-linecap="round" stroke-linejoin="round"></path><path d="M129.996 146.905C130.211 145.347 130.515 143.64 130.938 141.822C131.26 140.422 131.66 138.956 132.14 137.423C132.333 136.829 132.526 136.243 132.726 135.672C133.396 133.781 134.164 131.926 135.026 130.114C135.649 128.801 136.273 127.607 136.881 126.523" stroke="#D19B2A" stroke-width="1.48389" stroke-linecap="round" stroke-linejoin="round"></path><path d="M127.295 132.021C128.556 133.062 129.892 134.007 131.294 134.848C131.762 135.13 132.244 135.405 132.726 135.664C134.734 136.76 136.843 137.657 139.025 138.343C139.196 138.395 139.367 138.454 139.545 138.499C142.139 139.285 144.815 139.768 147.521 139.938" stroke="#D19B2A" stroke-width="1.48389" stroke-linecap="round" stroke-linejoin="round"></path><path d="M147.187 134.292C145.346 134.019 143.53 133.6 141.756 133.038L141.407 132.926C139.192 132.208 137.055 131.271 135.026 130.129C134.625 129.914 134.232 129.684 133.839 129.447C132.986 128.927 132.155 128.371 131.354 127.777" stroke="#D19B2A" stroke-width="1.48389" stroke-linecap="round" stroke-linejoin="round"></path><path d="M92.1344 150.481C91.675 151.021 91.3067 151.633 91.0437 152.291C90.7526 153.209 90.8298 154.204 91.2589 155.066C91.9044 156.246 93.3289 156.75 94.9686 157.018L95.3025 157.069C101.959 158.084 108.754 156.547 114.326 152.766C117.36 150.709 119.929 148.037 121.864 144.924C123.204 142.766 124.36 140.501 125.322 138.15" stroke="#4B2A7A" stroke-width="1.48389" stroke-linecap="round" stroke-linejoin="round"></path><path d="M125.277 138.15C125.282 138.135 125.282 138.12 125.277 138.105C125.44 137.705 125.604 137.297 125.759 136.881C126.348 135.291 126.843 133.669 127.243 132.021C127.332 131.665 127.414 131.279 127.488 130.96" stroke="#4B2A7A" stroke-width="1.48389" stroke-linecap="round" stroke-linejoin="round"></path><path d="M127.547 130.953C129.03 124.305 129.03 117.412 127.547 110.765" stroke="#4B2A7A" stroke-width="1.48389" stroke-linecap="round" stroke-linejoin="round"></path><path d="M112.397 84.2547C113.097 84.2055 113.795 84.3681 114.401 84.7214C115.007 85.0746 115.493 85.6021 115.795 86.2352C116.098 86.8683 116.202 87.5777 116.096 88.2712C115.989 88.9646 115.677 89.6099 115.198 90.1231C114.72 90.6363 114.098 90.9937 113.414 91.1488C112.73 91.3038 112.015 91.2494 111.362 90.9925C110.709 90.7356 110.149 90.2881 109.754 89.7084C109.359 89.1286 109.147 88.4434 109.147 87.7418C109.131 87.2994 109.203 86.8582 109.358 86.4434C109.512 86.0287 109.747 85.6485 110.049 85.3246C110.351 85.0008 110.714 84.7396 111.117 84.556C111.519 84.3724 111.954 84.27 112.397 84.2547Z" fill="#633890"></path><path d="M167.396 106.875C169.198 95.988 163.76 86.0205 155.251 84.6117C146.741 83.2029 138.382 90.8864 136.579 101.773C134.777 112.66 140.214 122.627 148.724 124.036C157.234 125.445 165.593 117.761 167.396 106.875Z" fill="white"></path><path d="M160.846 107.248C160.37 110.423 158.897 113.364 156.639 115.646C155.799 116.523 154.769 117.194 153.627 117.607C152.486 118.02 151.264 118.164 150.058 118.028C148.87 117.776 147.757 117.251 146.808 116.494C145.859 115.736 145.099 114.768 144.59 113.665C143.247 110.762 142.812 107.521 143.341 104.367C143.871 101.212 145.34 98.2906 147.558 95.985C148.4 95.1119 149.431 94.4439 150.572 94.0322C151.713 93.6206 152.933 93.4764 154.139 93.6108C155.328 93.8584 156.443 94.3814 157.394 95.1377C158.345 95.8941 159.105 96.8627 159.614 97.966C161.066 100.83 161.501 104.104 160.846 107.248Z" fill="#010101" stroke="url(#paint17_linear_27_26917)" stroke-width="3.70971"></path><path d="M160.984 99.9C161.319 97.8706 159.947 95.9531 157.917 95.6171C155.888 95.2812 153.97 96.654 153.634 98.6834C153.298 100.713 154.671 102.63 156.701 102.966C158.73 103.302 160.648 101.929 160.984 99.9Z" fill="white"></path><path d="M75.9683 124.056C84.478 122.647 89.9155 112.68 88.1132 101.793C86.3109 90.906 77.9513 83.2225 69.4416 84.6313C60.9319 86.0401 55.4945 96.0076 57.2968 106.894C59.0991 117.781 67.4586 125.465 75.9683 124.056Z" fill="white"></path><path d="M65.1279 97.9364C65.6361 96.834 66.3954 95.8659 67.3449 95.1097C68.2945 94.3534 69.4079 93.8299 70.596 93.5812C71.8016 93.4457 73.0222 93.5894 74.1633 94.0011C75.3045 94.4128 76.3357 95.0815 77.1771 95.9554C79.4337 98.2407 80.9044 101.185 81.3765 104.362C81.9457 107.517 81.5097 110.771 80.13 113.666C79.6217 114.769 78.8625 115.738 77.9131 116.495C76.9637 117.253 75.8503 117.778 74.6619 118.028C73.4556 118.164 72.2344 118.02 71.093 117.607C69.9516 117.194 68.9209 116.523 68.0808 115.647C65.8256 113.363 64.3549 110.422 63.8814 107.248C63.2201 104.093 63.66 100.806 65.1279 97.9364Z" fill="#010101" stroke="url(#paint18_linear_27_26917)" stroke-width="3.70971"></path><path d="M78.0435 102.98C80.0729 102.644 81.4457 100.727 81.1097 98.6972C80.7738 96.6678 78.8563 95.295 76.8269 95.6309C74.7975 95.9669 73.4247 97.8844 73.7607 99.9138C74.0966 101.943 76.0141 103.316 78.0435 102.98Z" fill="white"></path><path d="M138.194 157.611C137.97 158.124 137.954 158.704 138.15 159.228C138.342 159.592 138.64 159.89 139.003 160.084C139.367 160.277 139.781 160.356 140.19 160.311C140.515 160.256 140.813 160.097 141.042 159.86C141.27 159.622 141.416 159.317 141.459 158.991C141.511 158.821 141.53 158.643 141.513 158.466C141.496 158.29 141.445 158.118 141.361 157.961C141.278 157.805 141.164 157.666 141.027 157.554C140.889 157.441 140.731 157.357 140.561 157.307C139.574 157.025 138.855 157.514 138.862 158.434C138.862 159.584 140.205 160.081 140.598 159.213C140.895 158.598 140.39 158.115 140.071 158.353" stroke="url(#paint19_linear_27_26917)" stroke-width="0.370971" stroke-linecap="round"></path><path d="M138.261 157.596C138.501 157.083 138.541 156.498 138.372 155.957C138.213 155.586 137.944 155.274 137.602 155.06C137.26 154.847 136.861 154.743 136.458 154.762C136.12 154.788 135.801 154.928 135.554 155.16C135.307 155.393 135.147 155.702 135.1 156.038C135.042 156.204 135.017 156.379 135.027 156.555C135.037 156.73 135.081 156.902 135.158 157.06C135.234 157.218 135.341 157.359 135.473 157.475C135.604 157.591 135.758 157.681 135.924 157.737C136.111 157.822 136.316 157.859 136.52 157.847C136.725 157.835 136.924 157.774 137.1 157.668C137.276 157.562 137.423 157.415 137.53 157.24C137.637 157.065 137.699 156.866 137.712 156.661C137.764 155.652 136.369 155.014 135.983 155.882C135.627 156.624 136.117 156.995 136.458 156.832" stroke="url(#paint20_linear_27_26917)" stroke-width="0.370971" stroke-linecap="round"></path><path d="M144.768 164.963C144.329 165.312 144.045 165.818 143.974 166.373C143.972 166.785 144.094 167.188 144.324 167.529C144.554 167.871 144.882 168.135 145.265 168.287C145.579 168.389 145.918 168.388 146.232 168.284C146.545 168.18 146.818 167.978 147.009 167.709C147.135 167.584 147.234 167.435 147.303 167.272C147.371 167.108 147.406 166.932 147.406 166.755C147.406 166.578 147.371 166.402 147.303 166.239C147.234 166.075 147.135 165.927 147.009 165.802C146.267 165.06 145.399 165.193 144.976 166.002C144.427 167.019 145.391 168.087 146.141 167.486C146.697 167.085 146.474 166.425 146.081 166.484" stroke="url(#paint21_linear_27_26917)" stroke-width="0.370971" stroke-linecap="round"></path><path d="M144.842 164.978C145.291 164.635 145.597 164.138 145.703 163.584C145.736 163.181 145.645 162.778 145.442 162.43C145.239 162.081 144.934 161.802 144.568 161.632C144.258 161.499 143.913 161.474 143.588 161.563C143.263 161.652 142.978 161.849 142.779 162.122C142.65 162.241 142.545 162.385 142.471 162.544C142.398 162.704 142.356 162.877 142.349 163.052C142.342 163.228 142.37 163.404 142.431 163.569C142.492 163.734 142.586 163.885 142.705 164.014C142.832 164.175 142.995 164.303 143.182 164.387C143.368 164.472 143.572 164.51 143.777 164.5C143.981 164.489 144.18 164.429 144.356 164.325C144.533 164.221 144.681 164.076 144.79 163.903C145.302 163.034 144.375 161.818 143.625 162.419C142.98 162.871 143.225 163.465 143.625 163.48" stroke="url(#paint22_linear_27_26917)" stroke-width="0.370971" stroke-linecap="round"></path><path d="M72.2283 154.799C71.7256 155.045 71.3374 155.475 71.1451 156.001C71.0558 156.404 71.0893 156.824 71.2414 157.208C71.3935 157.591 71.6572 157.92 71.9983 158.152C72.2816 158.319 72.6107 158.391 72.9376 158.358C73.2646 158.324 73.5723 158.187 73.8161 157.967C73.9671 157.873 74.0978 157.75 74.2007 157.605C74.3035 157.461 74.3765 157.297 74.4152 157.123C74.4539 156.95 74.4575 156.77 74.426 156.595C74.3945 156.42 74.3284 156.254 74.2316 156.105C73.6603 155.251 72.7996 155.155 72.2061 155.86C71.4641 156.728 72.1616 157.982 73.0148 157.574C73.6454 157.307 73.5712 156.609 73.178 156.579" stroke="url(#paint23_linear_27_26917)" stroke-width="0.370971" stroke-linecap="round"></path><path d="M72.295 154.829C72.8131 154.595 73.2258 154.178 73.4524 153.656C73.5734 153.271 73.5728 152.858 73.4507 152.473C73.3285 152.088 73.0908 151.75 72.7698 151.505C72.4975 151.305 72.1653 151.205 71.8281 151.22C71.4909 151.235 71.1688 151.364 70.915 151.586C70.7625 151.675 70.6291 151.792 70.5222 151.932C70.4154 152.072 70.3373 152.232 70.2925 152.402C70.2477 152.573 70.237 152.75 70.2611 152.925C70.2851 153.099 70.3435 153.267 70.4327 153.419C70.5207 153.605 70.6521 153.766 70.8158 153.89C70.9795 154.014 71.1707 154.097 71.3732 154.131C71.5756 154.165 71.7833 154.15 71.9787 154.087C72.1741 154.023 72.3513 153.914 72.4953 153.768C73.1853 153.026 72.5398 151.638 71.6792 152.046C70.9372 152.351 71.0559 152.981 71.4269 153.078" stroke="url(#paint24_linear_27_26917)" stroke-width="0.370971" stroke-linecap="round"></path><path d="M74.9881 165C74.4587 165.179 74.0197 165.557 73.7639 166.054C73.6247 166.439 73.604 166.857 73.7046 167.253C73.8051 167.65 74.0222 168.008 74.3278 168.28C74.5876 168.483 74.9057 168.598 75.2356 168.607C75.5654 168.617 75.8895 168.52 76.1604 168.332C76.3216 168.258 76.4666 168.154 76.587 168.024C76.7073 167.894 76.8006 167.741 76.8613 167.575C76.9221 167.408 76.9492 167.231 76.9409 167.054C76.9327 166.877 76.8893 166.704 76.8133 166.544C76.3533 165.616 75.5075 165.416 74.8323 166.039C73.9717 166.781 74.5133 168.139 75.4185 167.842C76.0714 167.657 76.0936 166.959 75.7004 166.878" stroke="url(#paint25_linear_27_26917)" stroke-width="0.370971" stroke-linecap="round"></path><path d="M75.055 165.045C75.5948 164.875 76.0539 164.513 76.346 164.029C76.5134 163.66 76.564 163.25 76.491 162.852C76.4181 162.454 76.225 162.088 75.9379 161.803C75.6925 161.572 75.3759 161.432 75.0402 161.405C74.7044 161.378 74.3695 161.466 74.0905 161.654C73.9254 161.719 73.7748 161.816 73.6477 161.939C73.5206 162.063 73.4195 162.21 73.3504 162.373C73.2812 162.537 73.2454 162.712 73.2451 162.889C73.2448 163.066 73.28 163.242 73.3485 163.405C73.4124 163.6 73.5221 163.776 73.6683 163.919C73.8145 164.062 73.993 164.168 74.1886 164.227C74.3843 164.287 74.5914 164.299 74.7925 164.261C74.9936 164.224 75.1829 164.139 75.3443 164.014C76.0863 163.368 75.6634 161.914 74.7582 162.203C74.0163 162.411 74.0163 163.049 74.3724 163.19" stroke="url(#paint26_linear_27_26917)" stroke-width="0.370971" stroke-linecap="round"></path><path d="M142.832 219.318C143.137 219.789 143.613 220.124 144.16 220.253C144.57 220.293 144.983 220.209 145.346 220.012C145.708 219.815 146.003 219.514 146.193 219.148C146.324 218.846 146.357 218.509 146.285 218.188C146.213 217.866 146.04 217.576 145.792 217.359C145.68 217.222 145.542 217.108 145.385 217.024C145.229 216.94 145.058 216.888 144.881 216.871C144.704 216.853 144.526 216.871 144.356 216.923C144.187 216.975 144.029 217.061 143.893 217.174C143.113 217.842 143.151 218.71 143.893 219.214C144.842 219.86 146.007 219.007 145.503 218.205C145.154 217.612 144.471 217.768 144.493 218.168" stroke="url(#paint27_linear_27_26917)" stroke-width="0.370971" stroke-linecap="round"></path><path d="M142.861 219.251C142.566 218.766 142.1 218.409 141.555 218.25C141.159 218.176 140.75 218.226 140.384 218.394C140.017 218.561 139.711 218.837 139.508 219.185C139.342 219.479 139.282 219.821 139.337 220.154C139.393 220.488 139.56 220.792 139.812 221.017C139.917 221.158 140.049 221.276 140.2 221.365C140.351 221.455 140.519 221.513 140.692 221.537C140.866 221.561 141.043 221.551 141.213 221.506C141.383 221.461 141.542 221.384 141.681 221.277C141.856 221.167 142 221.017 142.104 220.839C142.208 220.662 142.267 220.461 142.276 220.256C142.285 220.051 142.245 219.846 142.158 219.659C142.072 219.473 141.941 219.31 141.778 219.185C140.969 218.591 139.663 219.392 140.168 220.201C140.561 220.884 141.177 220.706 141.229 220.327" stroke="url(#paint28_linear_27_26917)" stroke-width="0.370971" stroke-linecap="round"></path><path d="M81.8586 222.204C81.8586 221.804 81.1982 221.648 80.8495 222.241C80.345 223.043 81.5024 223.896 82.4595 223.25C83.2015 222.753 83.2015 221.878 82.4595 221.21C82.323 221.097 82.1654 221.012 81.9957 220.959C81.8261 220.907 81.6478 220.89 81.4712 220.907C81.2945 220.924 81.1231 220.976 80.9667 221.06C80.8104 221.144 80.6722 221.258 80.5602 221.396C80.3105 221.613 80.1369 221.904 80.0648 222.227C79.9927 222.551 80.0259 222.888 80.1595 223.191C80.3493 223.557 80.6445 223.857 81.007 224.053C81.3696 224.249 81.7825 224.331 82.1924 224.289C82.7382 224.163 83.2124 223.827 83.5131 223.354" stroke="url(#paint29_linear_27_26917)" stroke-width="0.370971" stroke-linecap="round"></path><path d="M85.1232 224.371C85.1752 224.742 85.791 224.92 86.1768 224.237C86.6887 223.436 85.3829 222.627 84.5742 223.228C84.411 223.353 84.2804 223.515 84.1936 223.701C84.1068 223.887 84.0664 224.091 84.0759 224.296C84.0854 224.501 84.1444 224.701 84.248 224.878C84.3516 225.055 84.4966 225.204 84.6707 225.313C84.8101 225.42 84.9694 225.498 85.1391 225.542C85.3089 225.587 85.4858 225.597 85.6597 225.573C85.8335 225.549 86.0009 225.491 86.1521 225.401C86.3032 225.312 86.4352 225.194 86.5404 225.053C86.7921 224.828 86.9594 224.524 87.0147 224.191C87.07 223.857 87.01 223.515 86.8446 223.221C86.6408 222.873 86.3348 222.597 85.9684 222.43C85.6019 222.263 85.1928 222.212 84.7968 222.286C84.2519 222.445 83.7862 222.803 83.491 223.288" stroke="url(#paint30_linear_27_26917)" stroke-width="0.370971" stroke-linecap="round"></path><path d="M93.8854 225.069C93.8854 224.668 93.1435 224.579 92.8838 225.202C92.4609 226.055 93.6925 226.79 94.5828 226.055C95.3248 225.484 95.2283 224.616 94.3825 224.022C94.2359 223.922 94.0709 223.853 93.897 223.817C93.7231 223.782 93.5439 223.781 93.3698 223.816C93.1958 223.85 93.0303 223.919 92.8832 224.018C92.736 224.117 92.6101 224.245 92.5128 224.393C92.2865 224.633 92.1428 224.939 92.1028 225.266C92.0627 225.593 92.1284 225.924 92.2902 226.211C92.5128 226.557 92.8339 226.828 93.2122 226.99C93.5905 227.151 94.0085 227.195 94.4122 227.116C94.9418 226.931 95.3817 226.552 95.6438 226.055" stroke="url(#paint31_linear_27_26917)" stroke-width="0.370971" stroke-linecap="round"></path><path d="M97.343 226.908C97.432 227.279 98.0849 227.398 98.3817 226.678C98.8046 225.833 97.432 225.194 96.6827 225.825C96.5329 225.965 96.4192 226.14 96.3512 226.333C96.2832 226.527 96.2629 226.734 96.292 226.937C96.3212 227.141 96.3989 227.334 96.5185 227.5C96.6382 227.667 96.7963 227.803 96.9794 227.895C97.1289 227.987 97.2952 228.049 97.4686 228.077C97.6421 228.105 97.8194 228.099 97.9903 228.058C98.1612 228.017 98.3224 227.943 98.4647 227.84C98.607 227.737 98.7276 227.607 98.8195 227.457C99.0486 227.209 99.1861 226.889 99.209 226.552C99.232 226.215 99.139 225.88 98.9456 225.603C98.7089 225.276 98.378 225.03 97.9973 224.897C97.6166 224.765 97.2044 224.752 96.8162 224.861C96.2924 225.075 95.865 225.473 95.6143 225.981" stroke="url(#paint32_linear_27_26917)" stroke-width="0.370971" stroke-linecap="round"></path><path d="M132.4 223.325C132.704 223.794 133.177 224.129 133.72 224.259C134.13 224.301 134.543 224.219 134.906 224.023C135.268 223.827 135.563 223.527 135.753 223.161C135.887 222.858 135.92 222.521 135.848 222.198C135.776 221.875 135.602 221.583 135.353 221.366C135.241 221.228 135.102 221.114 134.946 221.03C134.79 220.946 134.618 220.894 134.442 220.877C134.265 220.86 134.087 220.878 133.917 220.93C133.747 220.982 133.59 221.067 133.453 221.18C132.674 221.848 132.711 222.724 133.453 223.221C134.41 223.866 135.568 223.013 135.063 222.212C134.722 221.618 134.039 221.774 134.054 222.175" stroke="url(#paint33_linear_27_26917)" stroke-width="0.370971" stroke-linecap="round"></path><path d="M132.422 223.325C132.128 222.842 131.665 222.485 131.124 222.323C130.726 222.249 130.316 222.299 129.948 222.466C129.581 222.633 129.273 222.91 129.068 223.258C128.903 223.552 128.843 223.894 128.898 224.228C128.954 224.561 129.121 224.865 129.373 225.09C129.478 225.231 129.611 225.35 129.763 225.439C129.915 225.528 130.083 225.587 130.257 225.611C130.432 225.635 130.609 225.624 130.779 225.58C130.95 225.535 131.11 225.457 131.25 225.35C131.422 225.24 131.566 225.09 131.668 224.913C131.771 224.736 131.829 224.537 131.839 224.333C131.848 224.128 131.809 223.925 131.723 223.739C131.637 223.553 131.508 223.391 131.346 223.265C130.53 222.664 129.232 223.473 129.736 224.274C130.122 224.957 130.738 224.779 130.79 224.408" stroke="url(#paint34_linear_27_26917)" stroke-width="0.370971" stroke-linecap="round"></path><path d="M120.269 226.055C120.531 226.552 120.971 226.931 121.501 227.116C121.905 227.195 122.324 227.15 122.704 226.989C123.083 226.828 123.406 226.557 123.63 226.211C123.791 225.923 123.855 225.592 123.814 225.264C123.773 224.937 123.628 224.632 123.4 224.393C123.303 224.245 123.177 224.117 123.03 224.018C122.883 223.919 122.717 223.85 122.543 223.816C122.369 223.781 122.19 223.782 122.016 223.817C121.842 223.853 121.677 223.922 121.53 224.022C120.685 224.616 120.618 225.506 121.33 226.055C122.22 226.797 123.452 226.055 123.029 225.202C122.74 224.579 122.05 224.668 122.027 225.069" stroke="url(#paint35_linear_27_26917)" stroke-width="0.370971" stroke-linecap="round"></path><path d="M120.299 225.988C120.048 225.481 119.62 225.082 119.097 224.868C118.708 224.759 118.296 224.772 117.916 224.905C117.535 225.037 117.204 225.283 116.967 225.61C116.774 225.887 116.681 226.222 116.704 226.559C116.727 226.897 116.864 227.216 117.093 227.465C117.185 227.614 117.306 227.745 117.448 227.848C117.59 227.951 117.752 228.025 117.923 228.065C118.094 228.106 118.271 228.113 118.444 228.085C118.618 228.057 118.784 227.995 118.933 227.902C119.117 227.81 119.275 227.674 119.394 227.508C119.514 227.341 119.592 227.148 119.621 226.945C119.65 226.742 119.63 226.534 119.562 226.341C119.494 226.147 119.38 225.973 119.23 225.832C118.488 225.165 117.108 225.832 117.531 226.686C117.858 227.428 118.481 227.287 118.57 226.916" stroke="url(#paint36_linear_27_26917)" stroke-width="0.370971" stroke-linecap="round"></path><path d="M106.016 226.611C105.905 226.225 105.208 226.3 105.074 226.967C104.851 227.895 106.224 228.333 106.922 227.413C107.485 226.671 107.218 225.862 106.261 225.476C106.095 225.413 105.918 225.384 105.741 225.39C105.563 225.396 105.389 225.437 105.227 225.511C105.066 225.585 104.921 225.69 104.8 225.82C104.68 225.95 104.586 226.103 104.525 226.27C104.359 226.554 104.289 226.885 104.325 227.212C104.361 227.539 104.502 227.846 104.725 228.088C105.021 228.375 105.397 228.566 105.803 228.636C106.21 228.707 106.628 228.652 107.003 228.481C107.476 228.179 107.818 227.71 107.96 227.168" stroke="url(#paint37_linear_27_26917)" stroke-width="0.370971" stroke-linecap="round"></path><path d="M109.808 227.613C109.971 227.955 110.609 227.925 110.765 227.153C110.98 226.226 109.488 225.885 108.91 226.708C108.797 226.878 108.726 227.072 108.703 227.274C108.68 227.476 108.706 227.681 108.779 227.872C108.852 228.062 108.969 228.232 109.121 228.368C109.272 228.504 109.455 228.601 109.652 228.652C109.822 228.712 110.002 228.736 110.181 228.724C110.361 228.712 110.536 228.664 110.696 228.582C110.857 228.5 110.999 228.386 111.114 228.248C111.229 228.109 111.314 227.949 111.366 227.777C111.532 227.483 111.593 227.141 111.539 226.808C111.485 226.475 111.319 226.17 111.069 225.944C110.764 225.687 110.388 225.527 109.991 225.486C109.594 225.445 109.194 225.524 108.843 225.714C108.383 226.046 108.058 226.534 107.93 227.087" stroke="url(#paint38_linear_27_26917)" stroke-width="0.370971" stroke-linecap="round"></path><path d="M91.9195 47.5881C91.9195 46.8462 90.7324 46.4752 89.9162 47.6623C88.9517 49.1462 91.1775 50.9269 92.884 49.7397C94.2937 48.7752 94.4421 47.1429 93.0324 45.8074C91.9195 44.7687 90.3614 45.2139 89.3969 46.1042C88.9792 46.4483 88.6623 46.8988 88.4794 47.4081C88.2966 47.9174 88.2547 48.4666 88.3582 48.9978C88.4761 49.4687 88.6894 49.9105 88.9847 50.2959C89.28 50.6812 89.6512 51.002 90.0753 51.2384C90.4993 51.4747 90.9674 51.6217 91.4504 51.6702C91.9335 51.7187 92.4214 51.6677 92.884 51.5204C93.6974 51.2218 94.3976 50.6772 94.8873 49.9623" stroke="url(#paint39_linear_27_26917)" stroke-width="0.741943" stroke-linecap="round"></path><path d="M98.1516 52.04C98.2258 52.7819 99.4129 53.0787 100.155 51.8916C101.119 50.3335 98.7451 48.7012 97.0387 50.0367C95.629 51.0755 95.629 52.7077 97.1129 53.969C98.3 54.9336 99.7839 54.4884 100.823 53.5239C101.23 53.1604 101.524 52.6869 101.669 52.1604C101.813 51.6339 101.803 51.0768 101.639 50.5561C101.49 50.1032 101.251 49.6848 100.937 49.326C100.623 48.9672 100.24 48.6753 99.8107 48.4676C99.3815 48.2599 98.9149 48.1407 98.4387 48.1171C97.9624 48.0936 97.4863 48.166 97.0387 48.3303C96.2641 48.6965 95.599 49.2593 95.1096 49.9625" stroke="url(#paint40_linear_27_26917)" stroke-width="0.741943" stroke-linecap="round"></path><path d="M108.91 51.446C108.687 50.7041 107.5 50.7783 106.981 52.1138C106.387 53.8203 109.132 54.859 110.394 53.2267C111.507 51.8912 111.062 50.2589 109.429 49.4428C108.02 48.775 106.684 49.5912 105.942 50.7041C105.654 51.1539 105.488 51.6715 105.462 52.2053C105.436 52.739 105.55 53.2703 105.794 53.7461C106.05 54.153 106.384 54.505 106.777 54.7817C107.17 55.0584 107.614 55.2542 108.084 55.3577C108.553 55.4613 109.038 55.4705 109.511 55.3849C109.984 55.2993 110.436 55.1205 110.839 54.859C111.546 54.3784 112.069 53.6722 112.323 52.8557" stroke="url(#paint41_linear_27_26917)" stroke-width="0.741943" stroke-linecap="round"></path><path d="M116.107 53.8205C116.404 54.4883 117.591 54.4141 117.962 53.0786C118.481 51.2979 115.662 50.4076 114.474 52.114C113.436 53.5237 113.881 55.0818 115.662 55.898C117.071 56.4915 118.407 55.6012 119.075 54.4883C119.353 54.0163 119.5 53.4783 119.5 52.9302C119.5 52.3821 119.353 51.844 119.075 51.3721C118.802 50.9709 118.452 50.6286 118.045 50.3655C117.637 50.1025 117.181 49.9241 116.704 49.841C116.226 49.758 115.736 49.7719 115.264 49.8819C114.792 49.992 114.347 50.196 113.955 50.4818C113.311 51.0388 112.825 51.7552 112.545 52.5592" stroke="url(#paint42_linear_27_26917)" stroke-width="0.741943" stroke-linecap="round"></path><path d="M126.642 50.2591C126.123 49.6655 125.01 50.1849 125.158 51.5946C125.381 53.3753 128.2 53.2269 128.794 51.2236C129.239 49.5172 128.274 48.2559 126.271 48.1817C124.713 48.1075 123.823 49.443 123.6 50.7785C123.508 51.245 123.535 51.7273 123.677 52.1809C123.82 52.6346 124.074 53.0453 124.416 53.3753C125.974 54.9333 129.091 54.2656 130.055 52.2624C130.36 51.6147 130.488 50.898 130.426 50.1849" stroke="url(#paint43_linear_27_26917)" stroke-width="0.741943" stroke-linecap="round"></path><path d="M134.21 49.5913C134.804 50.1849 135.768 49.5913 135.62 48.1816C135.323 46.401 132.43 46.6977 132.059 48.7752C131.688 50.4075 132.726 51.7429 134.655 51.7429C136.213 51.7429 137.03 50.3333 137.178 49.072C137.238 48.6045 137.182 48.1294 137.014 47.6891C136.845 47.2488 136.57 46.8572 136.213 46.5493C134.581 45.0655 131.539 45.8816 130.649 47.959C130.332 48.63 130.253 49.389 130.426 50.1107" stroke="url(#paint44_linear_27_26917)" stroke-width="0.741943" stroke-linecap="round"></path></g><defs><linearGradient id="paint0_linear_27_26917" x1="161.558" y1="108.813" x2="223.258" y2="108.813" gradientUnits="userSpaceOnUse"><stop stop-color="#EEB6D3"></stop><stop offset="1" stop-color="#EA6CA9"></stop></linearGradient><linearGradient id="paint1_linear_27_26917" x1="149.16" y1="165.75" x2="162.226" y2="159.11" gradientUnits="userSpaceOnUse"><stop stop-color="#EDDBAD"></stop><stop offset="0.34" stop-color="#F8B618"></stop><stop offset="0.76" stop-color="#F7F0E3"></stop><stop offset="1" stop-color="#F7C74D"></stop></linearGradient><linearGradient id="paint2_linear_27_26917" x1="64.8979" y1="176.872" x2="157.121" y2="176.872" gradientUnits="userSpaceOnUse"><stop stop-color="#8C67AD"></stop><stop offset="0.31" stop-color="#764D9F"></stop><stop offset="0.52" stop-color="#764D9F"></stop><stop offset="0.91" stop-color="#623C97"></stop></linearGradient><linearGradient id="paint3_linear_27_26917" x1="129.269" y1="160.497" x2="155.489" y2="160.497" gradientUnits="userSpaceOnUse"><stop stop-color="#8C67AD"></stop><stop offset="0.31" stop-color="#764D9F"></stop><stop offset="0.52" stop-color="#764D9F"></stop><stop offset="0.91" stop-color="#623C97"></stop></linearGradient><linearGradient id="paint4_linear_27_26917" x1="137.972" y1="207.313" x2="151.779" y2="207.313" gradientUnits="userSpaceOnUse"><stop stop-color="#EDDBAD"></stop><stop offset="0.34" stop-color="#F8B618"></stop><stop offset="0.76" stop-color="#F7F0E3"></stop><stop offset="1" stop-color="#F7C74D"></stop></linearGradient><linearGradient id="paint5_linear_27_26917" x1="137.949" y1="218.932" x2="150.125" y2="218.932" gradientUnits="userSpaceOnUse"><stop stop-color="#8C67AD"></stop><stop offset="0.31" stop-color="#764D9F"></stop><stop offset="0.52" stop-color="#764D9F"></stop><stop offset="0.91" stop-color="#623C97"></stop></linearGradient><linearGradient id="paint6_linear_27_26917" x1="138.291" y1="228.845" x2="147.728" y2="228.845" gradientUnits="userSpaceOnUse"><stop stop-color="#EDDBAD"></stop><stop offset="0.34" stop-color="#F8B618"></stop><stop offset="0.76" stop-color="#F7F0E3"></stop><stop offset="1" stop-color="#F7C74D"></stop></linearGradient><linearGradient id="paint7_linear_27_26917" x1="95.644" y1="31.7776" x2="144.664" y2="12.9174" gradientUnits="userSpaceOnUse"><stop stop-color="#EDDBAD"></stop><stop offset="0.34" stop-color="#F8B618"></stop><stop offset="0.76" stop-color="#F7F0E3"></stop><stop offset="1" stop-color="#F7C74D"></stop></linearGradient><linearGradient id="paint8_linear_27_26917" x1="137.096" y1="146.779" x2="144.308" y2="146.779" gradientUnits="userSpaceOnUse"><stop stop-color="#EDDBAD"></stop><stop offset="0.34" stop-color="#F8B618"></stop><stop offset="0.76" stop-color="#F7F0E3"></stop><stop offset="1" stop-color="#F7C74D"></stop></linearGradient><linearGradient id="paint9_linear_27_26917" x1="76.168" y1="233.801" x2="139.604" y2="233.801" gradientUnits="userSpaceOnUse"><stop stop-color="#EDDBAD"></stop><stop offset="0.34" stop-color="#F8B618"></stop><stop offset="0.76" stop-color="#F7F0E3"></stop><stop offset="1" stop-color="#F7C74D"></stop></linearGradient><linearGradient id="paint10_linear_27_26917" x1="127.97" y1="182.852" x2="142.72" y2="183.802" gradientUnits="userSpaceOnUse"><stop stop-color="#EDDBAD"></stop><stop offset="0.34" stop-color="#F8B618"></stop><stop offset="0.76" stop-color="#F7F0E3"></stop><stop offset="1" stop-color="#F7C74D"></stop></linearGradient><linearGradient id="paint11_linear_27_26917" x1="74.469" y1="223.777" x2="138.432" y2="223.777" gradientUnits="userSpaceOnUse"><stop stop-color="#8C67AD"></stop><stop offset="0.31" stop-color="#764D9F"></stop><stop offset="0.52" stop-color="#764D9F"></stop><stop offset="0.91" stop-color="#623C97"></stop></linearGradient><linearGradient id="paint12_linear_27_26917" x1="71.9241" y1="210.46" x2="138.959" y2="210.46" gradientUnits="userSpaceOnUse"><stop stop-color="#EDDBAD"></stop><stop offset="0.34" stop-color="#F8B618"></stop><stop offset="0.76" stop-color="#F7F0E3"></stop><stop offset="1" stop-color="#F7C74D"></stop></linearGradient><linearGradient id="paint13_linear_27_26917" x1="126.516" y1="135.204" x2="145.591" y2="140.049" gradientUnits="userSpaceOnUse"><stop stop-color="#EDDBAD"></stop><stop offset="0.34" stop-color="#F8B618"></stop><stop offset="0.76" stop-color="#F7F0E3"></stop><stop offset="1" stop-color="#F7C74D"></stop></linearGradient><linearGradient id="paint14_linear_27_26917" x1="116.114" y1="163.806" x2="132.444" y2="168.34" gradientUnits="userSpaceOnUse"><stop stop-color="#EDDBAD"></stop><stop offset="0.34" stop-color="#F8B618"></stop><stop offset="0.76" stop-color="#F7F0E3"></stop><stop offset="1" stop-color="#F7C74D"></stop></linearGradient><linearGradient id="paint15_linear_27_26917" x1="0.742022" y1="108.813" x2="62.5236" y2="108.813" gradientUnits="userSpaceOnUse"><stop stop-color="#EEB6D3"></stop><stop offset="1" stop-color="#EA6CA9"></stop></linearGradient><linearGradient id="paint16_linear_27_26917" x1="84.0622" y1="51.1717" x2="141.6" y2="51.1717" gradientUnits="userSpaceOnUse"><stop stop-color="#8C67AD"></stop><stop offset="0.31" stop-color="#764D9F"></stop><stop offset="0.52" stop-color="#764D9F"></stop><stop offset="0.91" stop-color="#623C97"></stop></linearGradient><linearGradient id="paint17_linear_27_26917" x1="139.451" y1="101.124" x2="167.188" y2="110.121" gradientUnits="userSpaceOnUse"><stop stop-color="#8C67AD"></stop><stop offset="0.31" stop-color="#764D9F"></stop><stop offset="0.52" stop-color="#764D9F"></stop><stop offset="0.91" stop-color="#623C97"></stop></linearGradient><linearGradient id="paint18_linear_27_26917" x1="85.9701" y1="101.424" x2="58.339" y2="110.503" gradientUnits="userSpaceOnUse"><stop stop-color="#8C67AD"></stop><stop offset="0.31" stop-color="#764D9F"></stop><stop offset="0.52" stop-color="#764D9F"></stop><stop offset="0.91" stop-color="#623C97"></stop></linearGradient><linearGradient id="paint19_linear_27_26917" x1="137.239" y1="152.778" x2="132.346" y2="157.445" gradientUnits="userSpaceOnUse"><stop stop-color="#EDDBAD"></stop><stop offset="0.34" stop-color="#F8B618"></stop><stop offset="0.76" stop-color="#F7F0E3"></stop><stop offset="1" stop-color="#F7C74D"></stop></linearGradient><linearGradient id="paint20_linear_27_26917" x1="129.765" y1="154.708" x2="134.897" y2="150.298" gradientUnits="userSpaceOnUse"><stop stop-color="#EDDBAD"></stop><stop offset="0.34" stop-color="#F8B618"></stop><stop offset="0.76" stop-color="#F7F0E3"></stop><stop offset="1" stop-color="#F7C74D"></stop></linearGradient><linearGradient id="paint21_linear_27_26917" x1="148.518" y1="165.766" x2="142.036" y2="167.581" gradientUnits="userSpaceOnUse"><stop stop-color="#EDDBAD"></stop><stop offset="0.34" stop-color="#F8B618"></stop><stop offset="0.76" stop-color="#F7F0E3"></stop><stop offset="1" stop-color="#F7C74D"></stop></linearGradient><linearGradient id="paint22_linear_27_26917" x1="141.047" y1="163.968" x2="147.609" y2="162.487" gradientUnits="userSpaceOnUse"><stop stop-color="#EDDBAD"></stop><stop offset="0.34" stop-color="#F8B618"></stop><stop offset="0.76" stop-color="#F7F0E3"></stop><stop offset="1" stop-color="#F7C74D"></stop></linearGradient><linearGradient id="paint23_linear_27_26917" x1="75.6997" y1="156.412" x2="68.9783" y2="156.772" gradientUnits="userSpaceOnUse"><stop stop-color="#EDDBAD"></stop><stop offset="0.34" stop-color="#F8B618"></stop><stop offset="0.76" stop-color="#F7F0E3"></stop><stop offset="1" stop-color="#F7C74D"></stop></linearGradient><linearGradient id="paint24_linear_27_26917" x1="68.7993" y1="153.031" x2="75.5271" y2="153.014" gradientUnits="userSpaceOnUse"><stop stop-color="#EDDBAD"></stop><stop offset="0.34" stop-color="#F8B618"></stop><stop offset="0.76" stop-color="#F7F0E3"></stop><stop offset="1" stop-color="#F7C74D"></stop></linearGradient><linearGradient id="paint25_linear_27_26917" x1="76.6965" y1="167.562" x2="69.9815" y2="167.079" gradientUnits="userSpaceOnUse"><stop stop-color="#EDDBAD"></stop><stop offset="0.34" stop-color="#F8B618"></stop><stop offset="0.76" stop-color="#F7F0E3"></stop><stop offset="1" stop-color="#F7C74D"></stop></linearGradient><linearGradient id="paint26_linear_27_26917" x1="70.2715" y1="163.344" x2="76.9499" y2="164.175" gradientUnits="userSpaceOnUse"><stop stop-color="#EDDBAD"></stop><stop offset="0.34" stop-color="#F8B618"></stop><stop offset="0.76" stop-color="#F7F0E3"></stop><stop offset="1" stop-color="#F7C74D"></stop></linearGradient><linearGradient id="paint27_linear_27_26917" x1="143.936" y1="215.68" x2="145.098" y2="222.31" gradientUnits="userSpaceOnUse"><stop stop-color="#EDDBAD"></stop><stop offset="0.34" stop-color="#F8B618"></stop><stop offset="0.76" stop-color="#F7F0E3"></stop><stop offset="1" stop-color="#F7C74D"></stop></linearGradient><linearGradient id="paint28_linear_27_26917" x1="141.405" y1="222.935" x2="140.589" y2="216.256" gradientUnits="userSpaceOnUse"><stop stop-color="#EDDBAD"></stop><stop offset="0.34" stop-color="#F8B618"></stop><stop offset="0.76" stop-color="#F7F0E3"></stop><stop offset="1" stop-color="#F7C74D"></stop></linearGradient><linearGradient id="paint29_linear_27_26917" x1="82.8174" y1="224.332" x2="81.6769" y2="230.929" gradientUnits="userSpaceOnUse"><stop stop-color="#EDDBAD"></stop><stop offset="0.34" stop-color="#F8B618"></stop><stop offset="0.76" stop-color="#F7F0E3"></stop><stop offset="1" stop-color="#F7C74D"></stop></linearGradient><linearGradient id="paint30_linear_27_26917" x1="85.3515" y1="231.543" x2="86.1473" y2="224.898" gradientUnits="userSpaceOnUse"><stop stop-color="#EDDBAD"></stop><stop offset="0.34" stop-color="#F8B618"></stop><stop offset="0.76" stop-color="#F7F0E3"></stop><stop offset="1" stop-color="#F7C74D"></stop></linearGradient><linearGradient id="paint31_linear_27_26917" x1="95.7389" y1="223.08" x2="95.2029" y2="229.779" gradientUnits="userSpaceOnUse"><stop stop-color="#EDDBAD"></stop><stop offset="0.34" stop-color="#F8B618"></stop><stop offset="0.76" stop-color="#F7F0E3"></stop><stop offset="1" stop-color="#F7C74D"></stop></linearGradient><linearGradient id="paint32_linear_27_26917" x1="98.9403" y1="230.053" x2="99.1199" y2="223.337" gradientUnits="userSpaceOnUse"><stop stop-color="#EDDBAD"></stop><stop offset="0.34" stop-color="#F8B618"></stop><stop offset="0.76" stop-color="#F7F0E3"></stop><stop offset="1" stop-color="#F7C74D"></stop></linearGradient><linearGradient id="paint33_linear_27_26917" x1="133.497" y1="219.716" x2="134.658" y2="226.346" gradientUnits="userSpaceOnUse"><stop stop-color="#EDDBAD"></stop><stop offset="0.34" stop-color="#F8B618"></stop><stop offset="0.76" stop-color="#F7F0E3"></stop><stop offset="1" stop-color="#F7C74D"></stop></linearGradient><linearGradient id="paint34_linear_27_26917" x1="130.966" y1="226.972" x2="130.15" y2="220.293" gradientUnits="userSpaceOnUse"><stop stop-color="#EDDBAD"></stop><stop offset="0.34" stop-color="#F8B618"></stop><stop offset="0.76" stop-color="#F7F0E3"></stop><stop offset="1" stop-color="#F7C74D"></stop></linearGradient><linearGradient id="paint35_linear_27_26917" x1="121.738" y1="222.49" x2="122.267" y2="229.2" gradientUnits="userSpaceOnUse"><stop stop-color="#EDDBAD"></stop><stop offset="0.34" stop-color="#F8B618"></stop><stop offset="0.76" stop-color="#F7F0E3"></stop><stop offset="1" stop-color="#F7C74D"></stop></linearGradient><linearGradient id="paint36_linear_27_26917" x1="118.523" y1="229.47" x2="118.352" y2="222.743" gradientUnits="userSpaceOnUse"><stop stop-color="#EDDBAD"></stop><stop offset="0.34" stop-color="#F8B618"></stop><stop offset="0.76" stop-color="#F7F0E3"></stop><stop offset="1" stop-color="#F7C74D"></stop></linearGradient><linearGradient id="paint37_linear_27_26917" x1="109.845" y1="227.752" x2="110.862" y2="234.372" gradientUnits="userSpaceOnUse"><stop stop-color="#EDDBAD"></stop><stop offset="0.34" stop-color="#F8B618"></stop><stop offset="0.76" stop-color="#F7F0E3"></stop><stop offset="1" stop-color="#F7C74D"></stop></linearGradient><linearGradient id="paint38_linear_27_26917" x1="114.542" y1="233.785" x2="113.183" y2="227.23" gradientUnits="userSpaceOnUse"><stop stop-color="#EDDBAD"></stop><stop offset="0.34" stop-color="#F8B618"></stop><stop offset="0.76" stop-color="#F7F0E3"></stop><stop offset="1" stop-color="#F7C74D"></stop></linearGradient><linearGradient id="paint39_linear_27_26917" x1="93.6749" y1="43.3995" x2="91.0246" y2="56.1125" gradientUnits="userSpaceOnUse"><stop stop-color="#EDDBAD"></stop><stop offset="0.34" stop-color="#F8B618"></stop><stop offset="0.76" stop-color="#F7F0E3"></stop><stop offset="1" stop-color="#F7C74D"></stop></linearGradient><linearGradient id="paint40_linear_27_26917" x1="98.2452" y1="57.557" x2="100.23" y2="44.7166" gradientUnits="userSpaceOnUse"><stop stop-color="#EDDBAD"></stop><stop offset="0.34" stop-color="#F8B618"></stop><stop offset="0.76" stop-color="#F7F0E3"></stop><stop offset="1" stop-color="#F7C74D"></stop></linearGradient><linearGradient id="paint41_linear_27_26917" x1="109.127" y1="47.1784" x2="110.159" y2="60.1281" gradientUnits="userSpaceOnUse"><stop stop-color="#EDDBAD"></stop><stop offset="0.34" stop-color="#F8B618"></stop><stop offset="0.76" stop-color="#F7F0E3"></stop><stop offset="1" stop-color="#F7C74D"></stop></linearGradient><linearGradient id="paint42_linear_27_26917" x1="117.54" y1="59.4819" x2="115.835" y2="46.6023" gradientUnits="userSpaceOnUse"><stop stop-color="#EDDBAD"></stop><stop offset="0.34" stop-color="#F8B618"></stop><stop offset="0.76" stop-color="#F7F0E3"></stop><stop offset="1" stop-color="#F7C74D"></stop></linearGradient><linearGradient id="paint43_linear_27_26917" x1="124.862" y1="46.7382" x2="131.1" y2="58.1353" gradientUnits="userSpaceOnUse"><stop stop-color="#EDDBAD"></stop><stop offset="0.34" stop-color="#F8B618"></stop><stop offset="0.76" stop-color="#F7F0E3"></stop><stop offset="1" stop-color="#F7C74D"></stop></linearGradient><linearGradient id="paint44_linear_27_26917" x1="137.458" y1="54.5864" x2="130.638" y2="43.5359" gradientUnits="userSpaceOnUse"><stop stop-color="#EDDBAD"></stop><stop offset="0.34" stop-color="#F8B618"></stop><stop offset="0.76" stop-color="#F7F0E3"></stop><stop offset="1" stop-color="#F7C74D"></stop></linearGradient><clipPath id="clip0_27_26917"><rect width="224" height="254.115" fill="white"></rect></clipPath></defs></svg>